<?xml version="1.0" encoding="UTF-8"?>
<svg version="1.1" viewBox="0 0 1600 1600" width="1280" height="1280" xmlns="http://www.w3.org/2000/svg">
<path transform="translate(721,104)" d="m0 0h2l-1 4-11 17-7 14v5l2 6 6 7 16 26 16 21 8 8 7 8 10 10 8 7 15 12 11 8 16 12 16 11 14 10 11 8 15 11 18 14 11 9 11 10 8 7 13 13 7 8 10 13 12 19 15 28 7 17 6 23 3 15 2 22v18l-2 18-6 18-9 16-10 13-12 13-12 10-12 7-32 13-36 12-20 7-9 3 57 6 48 4 41 3 34 4 35 6 31 7 18 6 12 9 3 2-36 12-33 7-35 6-31 4-38 3-49 2h-110l-99-1-40-2-32-3-38-5-60-6h-2l5 5 10 5 14 3 61 7 31 4 23 2 22 1 146 1h76l33-1 37-3 41-5 50-8 26-7 25-9 10-5h6v7l-6 25-3 17v6l24-3 6-1h17l14 3 12 5 9 6 8 7 5 8 4 11 1 5v19l-3 15-5 14-10 18-10 13-8 7-6 2h-58l-22 4-16 6-8 7-7 8-9 11-14 17-12 13-12 12-8 7-2 2 53 4 39 4 62 9 33 6 31 8 24 8 17 8 14 9 9 8 9 12 4 13-2 9-6 10-11 11-13 8-16 8-19 7-25 7-27 6-43 8-39 5-45 4-47 3-42 2-39 1h-100l-60-3 13 8 14 7 36 15 20 7 15 2 24 1h85l25 4 15 5 16 8 17 12 9 9 10 14 6 13 3 11v18l-4 11-8 12-5 6-8 5-11 3-10 1h-21l-16-3-13-5-21-12-16-12-13-9-28-21-14-11-18-14-13-10-12-9-20-14-41-24-14-8-20-9-14-7-18-6-15-2-4-1-61-3-36-4-20-3-42-8-53-8-4-2 14 1 56 7 24 4 16 2 47 3h20l21-1 7 1-18-10-14-6-30-10-30-8-35-7-30-4-13-1-59-1-14-2-6-3-5-6-4-10v-7l3-6 9-6 13-5 17-2h38l30 2 20 4 35 12 19 8 18 8 19 10 24 14 21 10 19 11 9 6 15 8 11 4 18-1 85-2 65-3 56-4 72-8 72-10 38-7 46-11 26-8 20-8 11-7 3-6-4-5-23-11-18-6-32-8-56-11-71-12-19-2-16-1-5-1 1 2 24 6 12 5 11 8 6 9 1 3v13l-5 10-9 9-12 8-18 6-31 6-28 3-44 3-26 1h-109l-38-2-26-3-30-6-28-6-2-1v-2l17 1 16 3 9 1 1-1h65l45-1 33-2 42-4 46-6 37-6 26-6 15-7 5-2-1-6-4-2-32-4-44-8-8-1h-11l-64 16-28 4-13 1h-35l-32-3-29-6-20-5-24-9-18-8-16-10-15-8-12-8-13-12-13-11-6-5-7-8-8-8-9-11-12-15-15-23-12-21-12-26-9-24-8-28-5-27-2-21v-34l2-13 4-2h18v9l2-6 24-4 24-2 67-2h111l83 2 75 3 33 1h50l12-2 3-2-1-4-5-6-11-3-27-4-78-9-39-5-22-2-50-2h-108l-31 1-29 2-24 3h-7v-1l36-6 17-3 24-2 31-2 78-3 36-2-16-4-35-12-15-8-13-9-15-14-10-12-10-16-7-12-6-18-3-13-1-9v-12l3-18 6-17 8-14 10-13 10-9 13-9 14-7 12-4 10-2 15-1h18l18 2 15 4 16 8 11 8 8 8 5 8 4 12 1 6v17l-4 10-6 3-11 11-12 6-8 2-3-2 1-5 9-10 4-5 4-3 1-7v-10l-5-10-7-9-10-8-10-4-5-1h-8l-10 4-6 7-6 13-4 13v30l3 15 4 12 11 20 8 12 5 4 10 4 16 2 16-2 14-5 11-6 10-8 6-5 8-11 6-16 1-6v-32l-3-18-6-20-10-21-12-19-11-14-12-13-11-12-8-7-7-7-8-7-13-12-8-7-8-8-8-7-27-27-7-8-11-12-13-17-11-18-8-15-7-19-3-14-1-9v-14l2-8 5-9 9-11 15-20 12-17zm-21 42m-5 1-3 3-2 5-1 6v12l5 15 7 14 10 14 9 10 11 12 14 13 8 7 16 13 14 10 16 12 17 12 12 9 14 10 25 20 14 12 20 20 9 11 12 16 8 13 9 17 11 28 4 17 3 26v25l-4 26-6 20-8 16-6 10 1 2 14-9 7-7 11-18 8-16 4-13 2-13v-27l-3-27-5-20-6-16-12-25-11-18-12-16-12-13-21-21-11-9-12-10-19-14-18-13-10-8-13-10-18-14-17-14-12-11-10-9-9-10-11-14-13-18-10-17-9-15-5-8zm50 314-10 4-8 8-9 13-5 13-2 10v12l3 13 7 14 10 13 10 9 16 9 11 4 3-1-4-9-12-18-7-19-4-19-1-13 2-16 5-13 7-14zm26 122m-266 125-5 3-1 4 2 2 7-1 1-8zm26 49-1 4 4 4 3 1 76-1v-2l-39-5-14-1zm84 7m101 3-90 1-17 3-31 9-29 10v4l5 8 9-1 22-6 37-7 38-5 37-3 43-2 76-1 19-1 1-4-10-2-32-2-23-1zm-6 30-36 3-26 4-31 7-38 11-11 4 1 5 5 5 3 2h8l55-12 35-6 52-6 23-2 19-1h23l36 2h11l-2-4-9-4-26-5-15-2-13-1zm442 4-13 2-14 7-10 9-5 10-1 3v9l4 9 7 9 9 6 3 1h12l12-4 10-7 7-10 3-7 1-6v-11l-4-9-9-8-10-3zm-409 34-31 2-40 5-29 6-29 8-19 7-7 4 2 4 6 2h14l63-10 51-7 28-2 83-1 1-3-5-5-12-4-25-4-25-2zm-1 40-37 3-29 5-35 9-20 7-8 4 2 5 3 4 3 1h9l48-10 27-5 31-4 21-2 17-1h47l14 1-2-5-6-4-15-4-27-4zm9 40-37 4-29 5-26 7-19 7v4l7 8 15-1 79-13 22-2h71l1-1v-6l-5-5-17-4-22-3zm11 40-37 3-22 4-24 7-12 6-7 5 1 2 6 2h18l57-8 41-4 14-1h43l-4-4-12-6-23-5-11-1zm-4 40-22 2-31 6-19 5-2 2 12 5 9 2 19-1 69-6 38-3 11-2-4-4-13-4-14-2zm82 14m-1 1-7 6-10 4-12 2-12 1h-70l3 2 25 5 23 1 27-2 20-6 9-6 5-5zm-120 11m4 1m-188 30m3 1m2 1m3 1 3 2 13 4 4-1-6-3-10-2zm20 6m2 1m2 1m3 1m5 1m5 1m137 23m-23 51m174 73 5 5 20 15 12 11 11 9 7 6 20 14 18 13 13 10 18 10 13 5h8l1-4h27l11-1 2-1-1-4h-37l-14-3-12-5-24-16-16-12-13-9-16-12-16-11-14-9-10-6-10-5z" fill="#111010"/>
<path transform="translate(1394,1040)" d="m0 0h8l10 4 9 7 8 8 3 6v7l-4 11-7 12-9 10-9 7-3 2h-7l-9-4-10-7-7-6-5-9v-8l4-10 9-15 10-10 6-4z" fill="#111010"/>
<path transform="translate(313,1107)" d="m0 0 9 2 13 7 7 7 10 13 4 9v13l-7 8-15 11-5 3-9-1-11-6-10-8-11-14-4-7v-9l6-12 7-6 10-6z" fill="#111010"/>
<path transform="translate(313,1249)" d="m0 0h11l6 4 4 5 10 7 4 6 1 3v8l-4 10-10 14-12 12-9 5h-7l-9-4-5-6-8-6-6-9-1-6 5-13 7-12 5-5 12-9zm17 21m-13 10v3l2-3z" fill="#111010"/>
<path transform="translate(155,1171)" d="m0 0h10l9 4 10 8 10 13 6 12 2 8-5 9-13 11-8 4-7 2-12-5-9-7-5-5-7-8-6-10-1-4v-10l3-6 5-5 11-7z" fill="#111010"/>
<path transform="translate(447,1218)" d="m0 0h9l9 6 9 8 6 12 1 4v13l-4 9-9 11-9 9-6 3h-10l-12-6-10-10-5-10v-12l3-8 7-11 6-7 13-10zm-3 35m4 9m-1 1-5 7 1 2 4-4 1-5z" fill="#111010"/>
<path transform="translate(1538,1147)" d="m0 0h9l9 4 9 7 8 10 2 4v10l-5 12-8 12-5 6-10 6-10 2-16-8-7-6-7-11-1-5 3-10 7-13 9-11 8-7z" fill="#111010"/>
<path transform="translate(859,1313)" d="m0 0 7 1 12 6 10 8 9 11 7 12 2 5-1 7-6 8-14 13-4 2-7 1-12-5-14-10-9-10-5-7-2-6 1-10 5-9 10-7h2l2-4zm-2 20 1 6 3 1-1-5zm9 13 1 5 9 16 4 2-6-11-5-11z" fill="#111010"/>
<path transform="translate(1372,1161)" d="m0 0h8l11 6 11 11 4 10-1 10-8 16-10 13-6 5-7 3h-8l-10-5-11-11-6-10-1-8 5-13 5-8 8-10 11-7zm7 31m-2 1-2 5 4-3v-2z" fill="#111010"/>
<path transform="translate(1230,1285)" d="m0 0 8 1 10 7 7 6 6 10 1 2v13l-7 14-11 14-6 5-5 2h-11l-8-3-8-7-8-11-2-5v-9l4-13 8-11 5-5 10-7zm5 30-5 5-3 6 4-2 6-6v-3z" fill="#111010"/>
<path transform="translate(1188,1167)" d="m0 0h12l10 5 8 9 8 15 4 12v12l-5 6-12 6-11 4h-9l-8-3-9-8-9-14-5-16v-8l4-7 8-7 8-4zm2 25v7l4 13h2l-1-10-2-9z" fill="#111010"/>
<path transform="translate(730,1249)" d="m0 0h9l7 3 7 5 8 4 4 9 1 13-4 13-7 12-12 14-4 2h-9l-12-6-10-9-4-6-2-7v-12l4-11 6-9 10-10zm17 14-3 5 1 2 3-5zm-4 7-9 10-5 9v7h2l5-10 8-14z" fill="#111010"/>
<path transform="translate(566,1181)" d="m0 0h15l10 5 11 10 3 6 1 4v25l-4 10-5 5-8 4-8 2h-8l-11-6-5-5-6-7-4-8-2-7v-14l4-10 7-9zm19 19v3zm-2 3m-1 1-6 8-7 13 1 2 8-11 5-10z" fill="#111010"/>
<path transform="translate(593,996)" d="m0 0h21l7 3v1l-48 2-21 3-46 8-48 7h-5l3-2 36-7 50-9 23-4z" fill="#111010"/>
<path transform="translate(508,690)" d="m0 0 2 1-7 7-4 2 2-4z" fill="#111010"/>
<path transform="translate(559,794)" d="m0 0 4 1-9 1v-1z" fill="#111010"/>
<path transform="translate(566,792)" d="m0 0h5l-3 2h-5z" fill="#111010"/>
<path transform="translate(562,674)" d="m0 0h5v1h-5z" fill="#111010"/>
<path transform="translate(448,1020)" d="m0 0 3 1z" fill="#111010"/>
<path transform="translate(571,791)" d="m0 0 3 1z" fill="#111010"/>
<path transform="translate(558,675)" d="m0 0 3 1z" fill="#111010"/>
<path transform="translate(621 1e3)" d="m0 0 2 1z" fill="#111010"/>
<path transform="translate(574,790)" d="m0 0 2 1z" fill="#111010"/>
<path transform="translate(498,700)" d="m0 0" fill="#111010"/>
</svg>
