<?xml version="1.0" encoding="UTF-8"?>
<svg version="1.1" viewBox="0 0 1040 944" width="1280" height="1280" xmlns="http://www.w3.org/2000/svg">
<path transform="translate(510,158)" d="m0 0h11l12 3 10 5 12 11 7 8 7 6 11 5 13 2h76l48-1h33l18 2 13 5 10 6 10 10 8 14 7 21 5 26 4 36 3 46 4 89 5 98 6 84 6 69 5 54 1 18v25l-2 20-4 16-7 14-9 10-11 7-15 5-23 4-51 6-75 7-100 8-72 5-48 2-38 1h-48l-25-2-20-4-13-5-11-7-7-7-7-14-3-14v-13l2-17 4-12 4-6 6-5 13-4 7-1 22-1h221l40-2 31-3 28-5 11-1 37-1 9-3 4-5 2-5v-20l-4-49-2-45v-149l-2-14-5-17-12-29-6-12-4-3-9-3-17-3-23-2-22-1h-71l-2 1 10 4 5 5 4 6 4 13 4 6 5 3 28 1 10 2 10 6 7 10 7 13 5 3h8l18-4h13l6 4 3 8-1 13-9 34-1 5v13l5 30 9 38 6 28 3 21v28l-3 13-5 10-9 10-10 6-12 4-22 3-141 13-14 1h-44l-23-3-52-11-10-4-7-7-5-11-5-17-3-5h-8l-21 5-13 2h-29l-14-3-12-5-11-7-11-11-8-13-6-15-3-12-1-8v-27l3-18 6-20 10-21 10-14 9-10 14-11 14-7 16-4h20l21 5 19 9 16 10 5 2h10l15-6 2-4 8-15 15-43 4-8 4-5 7-3 21-1 15-3 10-6 6-9 6-10 2-6h-9l-36 3-41 2h-44l-22-2-12-3-12-5-11-8-7-8-6-12-2-7-1-9-1-24-1-59 1-36 3-22 4-12 7-11 9-6 10-3 14-1h21l48 3 30 2h9l14-2 11-4 11-7 19-19 11-7 8-4zm0 25-11 7-13 12-18 13-14 7-13 4-11 2h-29l-42-4h-51l-5 3-4 7-3 20-1 12v99l3 16 5 8 7 6 13 5 15 2h41l69-4 45-2h113l41 3 25 4 15 5 6 4 6 9 11 22 8 19 5 15 2 10 1 11 1 159 3 61 4 45v9l-2 9-4 8-4 5-10 6-13 4-13 2-46 3-31 5-38 3-20 1-39 1h-199l-13 1-7 6-3 7v16l5 12 7 8 14 7 14 2 17 1h60l55-2 71-4 122-9 83-7 42-4 18-4 9-4 8-6 6-10 4-13 2-15v-31l-4-51-8-81-5-61-4-59-3-54-5-124-3-45-4-26-4-15-4-10-9-12-9-5-8-3-4-1h-85l-47 1h-26l-21-2-14-4-11-7-9-9-7-8-9-8-7-3zm-69 294-14 2-6 4-2 3 1 6 3 2h162l3-3-1-4-7-2-105-7-21-1zm10 41-34 1-8 4-4 5-2 4v8l5 5 7 2h56l9 2 28 2h22l76-5 9-3 1-5-6-12-6-5-7-2-88-1zm189 0-4 3 2 6 5 1 2-2v-5zm-372 22-13 4-11 7-9 9-10 16-7 17-4 14-2 12-1 19 3 22 4 12 6 9 9 8 8 4 15 3h21l14-2 6-3 2-4-6-3-22-3-13-4-16-8-10-9-6-7-5-11-2-9v-17l4-17 8-15 6-7 13-9 9-4 9-2h23l14 3 19 6h9l1-6-4-5-13-9-17-8-13-3zm125 27-5 5-4 8-6 20-11 50-11 59-2 15 3 6 5 4 12 3 53 9 9 1h36l76-8 62-5 25-2 13-4 6-5 1-6h-54l-38 1h-80l-26-1-40-4-19-4-5-5-1-2 1-9 6-5 16-3 30-3 6-1-1-3-45-3-15-2-6-5-2-4 1-7 2-4 5-2 15-4 36-5 16-2v-3l-7-2-35-5-15-4-8-4-3-7v-12l4-10 6-5 10-3 8-1h20l86 7h51l27-3h16l8 4 3 5v6l-6 7-8 3-27 3-26 1-5 1 2 2 10 2 8 1 55 2 9 3 3 7-1 7-5 5-7 2-51 5-2 1v2l7 1 50 1 6 3 4 6v7l-5 6-9 3-53 8-1 2h43l29-1 9-2 3-2 1-8-4-26-6-28-9-29-7-16-6-7-5-3-4-1h-11l-24 1h-15l-29 2h-38l-41-3-50-1-11-3zm-123 18-10 5-8 8-6 11-2 9v10l3 9 7 9 11 7 11 4 12 2h26l8-7 7-6 11-1 3-5 3-12 1-7v-11l-9-3-7-4-7-6-14-7-14-4-5-1z" fill="#2C2C2B"/>
</svg>
