<?xml version="1.0" encoding="UTF-8"?>
<svg version="1.1" viewBox="0 0 2048 1223" width="1280" height="1280" xmlns="http://www.w3.org/2000/svg">
<path transform="translate(1241,168)" d="m0 0h73l4 1 1-1h11l5 3 4 2 18 1 15 5 10 4 10 2 13 7 3 3 7 3 5 4 10 6 10 7 13 12 8 8 4 5 3 3 3 5 6 5 5 5 6 9v11l4 10 7 8 9 14 5 8 2 4 4 4 4 9 5 13-1 6 4 5 3 7 2 16-3 2-3-5v-2l-5 1 1 4 6 2 5 10 2 11 1 1v15l-4 25-1 5-1 24-5 16-3 12-3 7-3 10-7 14-3 9-3 6-2 10-4 6-3 11-7 15-8 28-5 7-5 9-5 4-6 8-3 1-1 3h-2l-2 4-7 7h-4l-1 3h-2l-1 4 3-1-1 3-4 1-3 3-4-1h-3l3 1-1 7-12 14-5 6-5 5-11 13-4 5-6 4-1 5-8 7-12 13-10 13-8 10-5 4-11 14-5 5-13 19-2 4-6 3-5 4-1-2-5 3h-2v2h4l-2 4-13 7-6 4-7 7-4 5-5 3-5 5-9 11-10 10-8 7-14 11-28 20-16 10-5 2-2 4-8 3-18 10-9 4-8 6-10 5-16 9-24 8-11 3-9 4-7 3-8 6-31 12-11 3-16 7-9 2-11 4-11 2-8 3-8 2-13 2-18 5-9 2-21 2-3 1 3 2-21 2h-36l-8-1-5-2v2l-6 1-24-1-7-1h-11v1h-13l-21-6-36-12-16-6-3-2-13-3-11-6-12-6-7-6-1-2-10-2-2-3-2-4-8-4-9-7-1-2-5-2-2-5-8-6-1-3-4-2-6-8-11-11-10-16-12-20-6-13-2-10-3-7-1-5-2-26-3-13-3-17 2-16 4-20 2-25 6-19 7-20 4-7 4-8 2-7 4-5 2-7 4-6 4-10 4-7 9-19 3-6 2-1 5-10 7-10 14-23 4-4 12-19 7-9 10-15 5-7 8-7 10-10 8-10 9-9 3-5 4-4 5-6 5-1 1-5 5-1v-5l11-10 4-2 4-6 6-8 9-7 9-9 5-6 5-2 1-3 4-3h2l2-4 4-2 2-4 8-7 16-12 9-8 3-1 1-3 14-10 14-12 9-7 7-6 17-11 3 1 2 1-1-4 5-5 17-11 4-4 8-3 8-7 28-16 17-10 6-3 4 1-3 3-2 5-5 1v-2l-4 1-7 4-4 7-1-3-6 2-10 6-14 9-4 4-6 4-1 2 9-3 1-3 8-1 9-5 2-3 6-1 8-5 10-4 9-4 9-5 3-3 10-4 2-3-3-1 5-4 1-2-11 3-3 5 6-1-3 3-10 4-1-3 4-2 1-2h-4v-2l26-13h5l-5 5-2 1-1 4 18-8 2-3-11 1 2-3 9-4h6l14-6 9-3 13-1 13-6 5-2 8-4 7-2 10-6 17-8 7-3 6-3 8-2 12-7 12-3 9-4 10-2 9-4 9-2 19-7 17-3zm72 6v3l9 2 7 2 11 1 8-2-1-2-12-3-2-1zm-65 4-22 2-5 1 1 5-17 7-7 2h-4l7-3v-2h-7l-5 2-1-3h-2v4l-10 3 4-5-3-1-10 5h-9l-15 9-2 1-9 1-9 6-21 9-16 8-7 4-7 2-26 13-9 3-8 5-4 1-1-3h-3l2 4-12 6-30 13-28 14-29 14-3 3-12 5-22 12-10 7-7 5-9 4-21 14-14 8-9 7-12 8-9 7-6 7-11 9-11 10-2 1v2l-4 1-8 7-9 8-5 6-4 2-7 8-6 5-6 7-5 5-5 4-4 4-6 5-1 5h-5l-2 6-24 24-6 9-8 8-5 6-3 5-11 12-11 15-14 18-7 11-6 8-8 16-11 23-5 7-3 9-2 1h-4v6l-3 1 1 3 5-5-3 9-6 2-3 7-3 4-1 5h2l6-11 1 3-5 11-3 6-3 13-4 12-3 15-3 11-1 14 2 11 1 4-5 3-5 5-2 3 1 4 3 6 5 3 2 4h2l-1-5-7-9v-2l2 3h3l2-5 1 9 4 11 6 7h2l2 4 10 5 4 3 3 1h7l-1-3-14-5-3-4 12 6 13 4v2l-5 1 1 5 9 3 2-8h20l14 1-11 1v4h13l18-2 11-4-5 2-9 3-13 2-16 1-2 3-1 8-1-11-8-1 10-1 1-4-4-1h-15l-1 7 7 4 6 1-8 1-5 3-3 3v5h22l8-2 16-2 12-5 1 2 8-5h2l-8 5-1 4 7-4v-2l6-2 11-7 8-7 5-5v-2l5-1 4-4-1-4 5-2 5-4 7-3 16-11 12-10 14-10 6-4 4-2 8-10 10-12 7-8 6-6 4-8 2-1v-2h2l-7 9h3l3-1-12 12-2 4 1 2-6 4-10 11-8 11-1 3-4 2-10 15v2h-2l-6 10-5 3-1 5 5-3 15-14 20-20 6-5 8-10 5-5 5-6 4-4 11-14 8-12 6-8 6-12h-3l-10 10-8 7-5 5v2h-2l7-8 9-10 3-4 1-6 2-4 5-4 4-9 13-17 10-15 9-9 7-8 9-9 4-6 9-9 6-8 3-3 9-11 6-9 2-5 4-2 16-22 8-8-1-2-4 3v2l-5 2-9 6-26 26-8 10-4 4 4-7 8-11 11-11 14-11 7-6 5-3 4-6 6-4 16-15 10-10 7-8 8-9 8-7 13-12 9-9 7-9 5-5 5-4 7-8 12-12 8-7 13-12 10-8 1 2-5 2-12 12-8 7-30 30 1 2 8-7 11-8 13-13 8-7 7-6 11-6 15-10 5-5 10-7 18-13 3-3v-3l5-2 24-18 1-3 6-1 7-6 8-6 10-7 13-8 10-7 2-4-5-1 11-5-4 3 1 4 14-8 1-2-8 1 8-4 9-3 12-6 7-2 6-4 8-3 4-3 11-4 24-12 8-3 11-7 8-2 6-5-2-5-4-5 5 4h15l21-2 1-4-5-3-8 1v-2l4-2 2-5h-16v-2l9-2 1-5-5-4h-2l1-3-5-6-10-2-13 1-17-4-10-2-13-1-10-2-14-1-8-1zm100 2m2 0v3l5 3h3l-2-5zm34 17 5 5 6 1-1-3-6-3zm17 12 1 3 5 4 6 6h6l2-2-7-7-9-4zm20 5 2 4h3l-1-3zm-17 4 2 4 4 3v-3l-5-4zm26 1v2l3-1zm-29 9-15 3 1 4 4 7 4 8 1 3-7 1 2 2 9 1 4 1h4l3-4-2-3h4l1-2v-7h-4l-10 1-2-1v-2h2l2-5 8-1-2-5-1-1zm11 0 1 4 4 2v-5zm9 0 1 4 2 2h3l-1-5zm9 0 1 5 9 6 3-1-2-5-8-5zm-61 3 2 4 2 3-6-1-1 3 12 5 4 2h4l1 3h6l-3-9-5-7-3-1-2 1-1-3zm-306 3-2 3h4l-1-3zm383 2-1 2 3 3 1-2zm-29 3v11l5 1 8-1v-7l-1-2-7-2zm22 1 1 4 3 3h3v-5l-2-2zm18 0v4l5-1-3-3zm-24 1v7l2 3h4l-1-4-4-6zm16 4m-435 5-8 3-2 4 6-1 8-5zm362-1-13 1-4 2 1 4 6-1 12-4 1-2zm-31 1-4 2 4 1 2-2zm107 0-3 1 1 4 5 1v-5zm6 2 2 5 10 6 7 3v-4l-5-4-8-4-3-2zm-121 1-2 1-2 5-12 6-1-1 9-5 1-2-5 1-9 5-2 5-2 1 1 4-5 1-11 2-12 6 3-2v-2l-8 1-8 5-14 7v2l-6 2-16 9v5h-2l-1-2-16 9-12 9-13 9-1 4-4 1-5 5-1 2 6-1 8-5 15-6 15-8 16-8 20-9 9-4 4-3 7-4 19-10 7-6v-3l3 1 8-4 2-2 4-1-5 5 10-3v-2l-2-1 7-4 1 1-3 6-1 4 8-1 6-3-1-3h-3l1-2 4-1v-3l-4-1 8-5 7-4v-3l-9 2-7 1v-3zm80 1-3 3v2h6l2-2 2 2h5l-1-5zm-49 2-16 6-2 3 1 1h7l3-3h7l11-4v-3zm66 0v4h12l-1-3zm-124 10-8 4v2l5-1 6-3v-2zm133 0-1 3 4 9 8 7 3 3h5l-1-6-4-5-5-10-1-1zm12 0 1 6 8 11 4 2-1-6-6-13zm10 0 4 13 8 9 5 6 6 4 5 3-2-4-6-9-4-8-5-9-6-5zm-83 0-9 4 1 3 5-1 7-3v-2zm54 1-3 2 3 9 5 9 4 1 1-1-1-7-4-5-3-8zm-452 3m367 0v2l3-1zm74-1-2 1-1 4-1-2-4-1-9 2 2 4 6 4 5 5 5 4-6-1-8-5-3-4-3-6-3-1-8 3 2 4 6 9 7 2 4 3 10 1 13-2 3-3-10-7-2-3 1 1 4 1-2-5-2-8zm-131 4-1 2 4-1zm67 0-2 2h4v-2zm-70 2m76 1-1 2 4 1 3-1v-2zm-15 2-1 4h5v-4zm34 0-3 1 2 7 8 6h4v2h-7l-2 2 1 4h5l15-5v-3l-7-3-3-1v-2h-2l-2-6-2-2zm-11 1-5 3 2 5 7 7 5 1 2-4-4-6-3-6zm-31 3-3 4h4l2-1v-3zm19 1-3 2 1 4 7 6 5 2 7 3 4-1-10-6-4-6-4-4zm-28 3v2l3-1zm7 2-2 2-6 2 2 4 5 2 1-2 4 2 5 6 7 1 6-2-1-2-5-2-5-5-3-6zm12 0 1 4 4 5 6 4 5-1-5-6-5-4-1-2zm-28 1-1 3 3-1v-2zm-25 1m-49 1m46 0-1 3 4-2zm21 1v2l3-1zm-11 2-13 5-13 4-8 5v5l5-1 2-4 3 2 6-1 9-7 10-3 3-2v-3zm20 0-10 4-1 6 4 9 6 5 6-1 8-1v-2l-6-2-8-6-2-5 5 5 5 4 11 3 5-3-2-3-6-3-7-6-2-4zm13 4m-32 2-4 3 1 6 5 7 3 7 5-1 3-2-2-5-6-9-2-6zm187 1 2 3 2-1-1-2zm-103 3-16 5-13 2-14 5-8 1-8 4-9 3-1 3 10-1 10-2 19-1 1-3 5-1 10-3 8-4 13-4 5-3v-1zm90-3-1 2 6 4 2 5-6-3-8-5-3 1 9 9 6 9 5 6 5 4h2v-8l-7-8 7 5 4 10-1 4 6 2h4l-2-11-7-9-10-6-1-4-7-6zm-184 5-3 2v6l6 8 4 4 6-1-2-5-6-9-2-5zm-32 4-16 9 1 4 3 1 12-6 4-4v-4zm22 0-6 4 7 14 4 5 5-1 4-2-1-4-4-5-5-11zm-13 6-2 2v7l5 8 3 3 5 2 4-1 2-1-2-5-7-11-3-4zm-394 4m-3 1m385 1-6 3-10 8 1 5 4 7 5 2 1 2h5v-4l-5-2-6-6 10 6 5 2h5l2-4h5l1-3-10-14-2-2zm-16 0-9 6-1 2 3 3 5-2 4-4-1-5zm194-27-1 3 17 1-18 1-3 1v2l14 7h-6l-1 3-7-6-9-2h-8l-25 6-13 5-8 3-2 4 16 1 18 6 8 3h6l8 6 6 3 3 1 5-2 10 8 2 1 3 5 5 3 4 3 3 1 9 14 5 6v2l-6-4v11l2 3 3 12 1 9-1 12-4-19-1-11-7-11-3-6-4-5-4-6-3-4-1-3-8-5-12-12h-6l-6-6-13-6-13-2-5-2-24-3-11 1-6 2-1 2-5-2-11 1-1 1-20 2-5 4-12 6v-1l1-3-7 1-3 2 2 7-14 8-3 3-4 2-3 5-14 8v2h-2l-1-3h-2l-1 11-9 5v-1l1-2h-3l-1 2-3 1v4l-16 8-6 4-2 1-1-2-9 7-3 5-14 10-16 11-11 9-10 8-14 10-4 5-9 7-1 3h-2l9-10 5-4v-2l4-2 4-4v-2l-5 1-20 20-2 5-6 7 1 3-4 4-4 2-4 5-8 7-6 9-6 7-15 23-13 18-11 14-16 22-6 9v2l-5 2v6l-6 7-5 6-4 3-3 7-6 10-8 12-10 14-9 13-14 19-11 13-9 11-11 13-2 4-4 2-9 10-15 14-12 10-10 8-17 12-18 13-17 11-9 6-16 10-16 11-18 12-4 4-23 14-5 4-4 4-14 10-9 10-6 11 1 8h3l6-6 1 2-4 2-3 3-1 5-1 1v5l5 6h-2l1 4 4 6-2 4 1 5 3 1v-6h2v2l3 2v5h-2l-1 6 4-3 4 1 5 3 1-10v-19h2l-1 11v12l1 12 3 3h4v-3h2l1-2 3 1 2 7h4l2-2 2 5 2 4-6-1v6l8 2 3 5h7l-2-6h3l2 4 1-4h-2l-2-5-4-4-6-17v-8l2 9 5 9 9 17 5 9 3 5 7 1 4 3h8l-1-6-4-5-8 1-2 3-3-8-3-5h-4v-2h3l1-6 3 6 10-1 2-4v-7h2l1 10 1 1h10l-2-13 4 4 3 9 4 1 6-2 12-1-2-7v-6l4 10 1 3h5l2-6h2l1 5 13-1 14-5 6-2h6l-17 6-2 8-1-6h-7l-1 4 4 9 4-1 10-2 4-1-1-4h1l2 2h10l24-9 13-6-1-5-2-3h-11l-12 4-2 1-9 1-2 1v-2l9-3 12-3 11-4 18-8 11-3 8-4h4l-8 4-7 2-13 5 3 1 13-4v3l-19 4-2 2 2 9 2 1 11-5 24-10 4-1-2 2-6 1-12 6-19 8v8l-3-5-5 1-3 2 2 9h-2v2l-17 1 3 5 1 1h5l3-3h13l5-5-1-4h8l8-2 2-7 1 6 18-1 8-4v-2h-2l-2-5v-2l5 7 2-1v-17l1 1 2 15 11-3 10-4 22-10 8-5 8-4 11-6 10-7 16-9 22-14 3-3v-2l5-1 7-5 8-4 4-4-1-2-7 3-4 4-9 3-6 4 5-4 16-10 7-6 14-9 8-7 5-2-2-5 3 1 5-1 12-8 6-6 6-3 2-4 5-2 5-5 5-3 6-6 1 1-8 8v2l4-2 5-4-3 5 1 2 3-1-3 3-4 1 2 5 4 4 4-1 1-3 3 1 8-6-1-4-4-8-3-2-4 3v-5-3l3-3h2l3 9 6 8 4 1 4-4v-5l4 3 6-5-1-6-6-8-4 1v2l-4 2 1 5 2 3-4-1-2-5-4 3-1-6 3-5 4-2-1 6 4-2 3-2v-2l4-2 3-4-2-1-7 6-2-1 4-2v-2l4-2 5-3v5l8 7 5 5 4-1v-5l4 1 5-3-1-4-2-3 4 3h6v-4l-3-4v-2l5 7 4-2 6-4 2-3 5-3 3-5-6-9-4-1v-5h3l6-8 1-8 2 3 4-1 1-4v-4l3 3 3-5 6-2 4 5 3 6 5-2-1-7-5-12-6-12 4 1 2 5 1 2 4-1 4-3-2 4-4 2v5l7 8 5-5 1-5 9-4 6-9 4-5v-9l2-1v5h4v-2l4-2 8-8 3-5 1 1-1 1-1 15-2 4 4-2 8-8-1-5v-16l1 3 1 9 1 2 4-2 7-7 1-6v-10l-2-5-1-13h2l1 5 1 1h5l-1-7-5-16-4-6h-2v-2l5 2 3 2h2l-2 2 1 3 5 2 2 5 5-1 7-11 3-3v-6l-3-8 6 4h2l1-5-2-4 4 1 3-5 3-3h3l4 9 2 5 3-4 3-13-4-14h-2l-5 8-4-2-1-2 4 3 5-8 3-9 7-14 3-9 2-4-3-7h1 2l2 4v7h-2l-3 6v6l5 9h2l1-10 1-4h2l-1 7 6-3 1 3h2l-1 13-1-3h-3l-2 8-4 6 1 3 1 14h3l2-15 2 3 3-1v-8l3-1 3-7v-13l-1-2-8-2-3-3-3-2v-2l5-1 4-10v-10l-5-9v-5l4-7v14l1 6h3l3-10 2-11 1-2 1-14 2-3v-10h-2l4-13 1-2-1 27-3 11-2 6v11h3l4-6 1-11 2-6-2-2v-3l2 3 5-2 1-5-5-5v-4l4-1 2 7h2l-1-13 2-4v-6l-1-4 2 2 2 6 3-1v-16l-1-2 1-12v-10l-1-2-5 2-1 5h-3l3-9 2-15 3 2 2 10 4 4-1 21h3l-1-10 3 3 1 12 4 7 2-1 1-10-4-12-3-11h2l2 6 4 8 2-2-1-8-3-7-4-6 1-1 4 7 3-1-1-13-2-7v-7h-3l-2-5-1-4 5-2v8l2 2 2-7v-13l-6-3-8-11h-2l2 4 6 11v7l-4 2-3-3-1-2h2l1-5-2-3-2 5v3h-2l-1 13 3 6h-3v-2h-2l-2 7-1-8 3-1v-24l3-4-1-9-3-6h-1l-3 27-1 2v8l1 6-4 1-1-15-4-8-2-5 2-1 1 6 4 2 1-1 1-7v-27l-12-18 4 4 7 10 2-1-3-9-1-9-6-9-4-4-23-10-2-2 8 2 8 4 9 3 4 1-3-5h-2l-2-5-5-6-4-3 4-1v-2l-13-3-5-1zm-208 37-6 4-2 3 4-1 7-4-1-2zm281 0 3 5 4 1v-2l-5-4zm-21 1 2 13 2 5-1 1v8l2 7 1 3 3 1-1-13 1-1v-8l-1-5h2l2 10 5 7v3l-4-4-2 1 1 12 8 11 1 3 4-1-1-3h-2l-1-5-2-8 5 2 2 1-2-11-5-9-2-7-7-4-6-7zm-251 1-14 7-9 6-1 4-1-2-4 1-2 3 4 8 3 3 4 6 5-1-1-5-2-3h-2l-2-6 5 5 3 1 1 3 4 1 12-7 1-1-1-8-4-4-5-1v-5l10 10h2l2 4 4 1 1-4-7-9-4-7zm-386 2 1 2 1-2zm343 3-9 5-7 3-9 6-1-1 6-5-2-2-8 7v5l-5 2-10 5-7 6-11 8-13 10v3l-5 2-2 1v2l-4 2-8 7-13 12-9 7-13 11-5 4-5 5-5 4-6 3-9 8-3 3 7-8 2-4-3 1-6 7-8 7-13 12-11 9-7 6v4l-5 1-32 32-10 13-7 9-6 9-6 8v2l4-2 13-13 8-7 11-11 2-3 5-2 4-5 5-5 11-9 5-4v-2l4-2 10-7 5-3 6-8 9-10 7-9 12-13 11-10 11-9 12-10 7-5-4 5-8 7-14 12-9 8 1 2 11-7 2-3 7-4 8-6v-2h2l5-5 15-14 7-6 5-1 1-3h5l14-9 6-4 1-3 9-5 12-8 1-4 4-1 15-11 9-7 3-6h-3l-8 6-15 10-10 8-14 10-12 11h-2l5-5 16-13 8-6 10-8 11-7 7-6 5-3 2-3zm9 0-4 4 1 3 5-5v-2zm13 0-6 5 3 1 6-5zm-10 6-3 4 6-2 1-2zm68 0-6 4-14 9-10 6-1 4 5-1 6-5 8-1 1-4 9-4 6-5v-3zm162 0 2 4 3 5 6 4 5 6h2l2 6 6 10 5 6h1l-1-8-5-12-5-6-10-6-5-4-4-5zm-236 7m1 1 1 7 5 6 4 7 3 1-1-4-4-5-6-11zm316 1v4l4 2-2-6zm-321 4-10 7 2 4 7 9 4 3 6-2 4-4-6-8-4-9zm-14 9-16 10-4 3 2 12 4 6 4 4 4-1 10-8 1-4v-2l2 3 4-2 3-3-1-5-9-13zm49 8 2 2 1-2zm3 2-3 3v7l4-1-1-5 3-3zm278 0 2 5 1-4zm-355 7-4 5 5 10 4 2 1 4-8-9-4-7-4 2 1 8 5 7 9 9 6-8 2-1-1-4-4-5-6-13zm69-1-11 6v4h4l2-3h3l1-3 2-1zm242 3 1 3zm-262 4v3l2-1v-2zm317 0-4 5 2 5v10h3l1 7 2 1 1-3v-12l-5-5v-5h2v-3zm-314 3-3 3 1 3 5-4v-2zm-67 1-9 7-3 3 2 7 9 9 5 2h8l4-3-1-7-8-10-5-8zm-17 15 1 7h-2l-2-5-3 1v12h-2l-2-4-2-5-4 2-10 8 1 10 6 11 6 4 10 1 4-1 1-5-7-6-1-2 7 3 8 1 1-3-7-2-1 1-7-10 12 7 6 1 4-2-1-3-8-4-4-5 8 7h10l2-3-7-4-5-3-5-4h-2l-2-4zm59 3-1 3 3-1v-2zm-12 3v3zm-7 6-1 3h2zm357 0-1 17-2 4-1 15-2 6v14h3l2-8 2-9v-9l2-9 1-21zm-455 4-7 7h3l6-5v-2zm28 2-8 6-7 6 1 8 6 8 6 5 13 5 5-1-2-4-11-6-6-5-4-2 1-2 11 8 5 3h8l-2-4-4-3h-2l-2-6-5-10-1-6zm70 1-1 2h3v-2zm-16 4m6 0-4 4h3l4-4zm-96 1m88 0-5 5 1 2 5-4 1-3zm3 5m-99 2-2 4 4-2v-2zm96 0-2 1v2h3l1-3zm-102 4-2 4 5-4zm30 0-1 5v2l-5-2-4 2v8h-6l-4 5 4 7 12 8 3 1h-7l-5-3h-2l-2-5-5-2-1 9 4 6 5 3 12 2 2 1h6l2-2 5-2 1-4 6-1v-2l-19-10-3-3 15 8 8 1 8-6 1-3-12-5-8-5-5-8-3-5zm61 0-4 3v2l-6 1v3h5v-2l4-2 1-3h3v-2zm3 2-1 3-2 1v2l4-2 2-2zm-108 5m-2 1-3 3 1 2 4-4zm106 0m-110 5m16 9-8 8-2 3 1 3 7-8 4-6zm9 1-6 5-1 2v13l5 3h2v2h2l2 5 16 2 9-1-2 7 4-2 2-5 2-1v-2h-4v2h-2v-2l-14-4-11-5-3-6v-7l2-4-1-2zm451 5-2 7v2h4l-1-9zm-463 6-5 7v10l4 8-5-5-2-4h-3l1 10 3 6 7 10 9 1h10l4-1 6-1 6-8 3-2-1-3-4 3-6 2-3 5v-2l1-4-17-2-6-2v-2l14 3h9l-2-4-10-6-6-4-4-9-2-6zm-9 2v2l-4 2-1 4 4-2 3-4v-2zm67 2-1 2h2zm424 0-3 8-1 7 3-1 1-7 1-1v-6zm-427 2-2 1v3l3-1 1-3zm414 3v5l2-4zm-486 3-8 7-2 4v3l3-1 4-6 4-5zm485 2m-12 5-1 5 2 4 1-1v-8zm11 0-2 6v14l3-2v-18zm-483 3-7 8-4 10 1 8h2l1 4 5 3 18 6 8 2 3-3-1-3-2 1 1 2h-4l1-4-18-5-8-4-3-5 4 3h2l1 3 3-1-2-5 8 6h12l-1-4-8-4-9-13-1-5zm-15 3-2 3h3zm-13 7-2 2 1 4 5-2 1 2 4-1 2-5h-3l-1 2-2-2zm498 0-5 11v4l-5 2-1 2-1 13 4-1 1-8 3-5 2-3 2-9 1-6zm6 1-1 4v11l3-1-1-14zm12 0 1 2 1-2zm-519 5-8 4-13 13-5 7-3 1-3 5-5 4-1 3h-4l-2 7-3 1v2l-4 1-4 6-10 11-7 8-10 12-4 5v2l-4 1-3 5-7 10-9 12h-4l-2 5v3l-15 24-9 14-12 19-7 9-8 13 1 2 10-11 7-8 11-13 18-20 8-10v-3l4-1 5-4 8-11 9-12 5-5 7-9v-2l4-2 6-7 7-10 14-16 11-14 9-12 10-16 9-13 5-4-11 15-2 5 5-5 9-10 3-4-2-4-2-3zm11 7-10 10-7 8-3 4-1 4-3-2-2 3v6l6 6-5-3-5-4-6 8-5 5v3l1 1-4 1-7 9-6 10-4 5-6 3v2h-2l-3 6-7 7-8 11-9 10-5 5-16 20-9 11-10 11-7 8-11 12-8 10-11 12-8 10-8 7-6 8-8 7-3 2v4l-4 1-6 8 7-1 5-5h3l-5 4v2l-9 3-10 5-10 9-7 8-8 6-7 8-4 5-9 7-3 4 4-2 16-10 10-7 15-8 9-6 4-6 10-11v-3l6-1v-3h2l2-11 2-1 6-1 10-10 7-10v-2l4-2 10-13 3-1v6l-3-1-4 5-3 6 4-1 11-10v-2l4-2 9-10 5-4 7-9 4-5 5-2 1-5 6-7 9-11 7-11 9-17 3-4-1-3 5-5 5-4 2-8 4-2 8-11 5-6 8-6 2-2h5l5 4 15 5h-7l-16-8-8 6 2 4 3 1 2 5-4-2-3-2-6 1-8 11-3 4 9 7 4 4 5 3h5l-1-4-1-2 3-3-2-3 6 2h11v-3l-16-6-4-5 5 5 10 3h19l5-6-3-1-9 2h-10l17-2 7-3 2-3 4-1v-3l2-3v-2l-13-3-6-2 1-4-4-1v-3l9 6h24l4-4-2-4-5-2-10-3-17-8 7 2 6 3 16 3h5l-1-2-9-3-8-3 24-1 5-5-19-3-2-1h21l5-2-1-3-15-5-2-3 20 6 4-2 1-4-19-5-12-7-8-7zm492 6-2 4v6h3l1-3v-7zm-548 7m33 6m499 2-3 5v2l5-2 1-5zm-9 4-5 10 2 6 3 8 1 2 1 12 3 1 4-10 1-8 5-9 3-3-1-3-7 1-5 15-2-1 2-6v-8l-3-7zm-447 19v3l5-1-3-2zm459 2v7l3-1-1-5zm-556 1m534 6-1 3 6 1v-4zm-535 1-7 7-8 7-5 5v2h-2l-1 4 8-6 12-12 5-7zm551 12-4 7 1 5 2-1 3-8v-3zm-36 2-5 7-1 9 6 8 4-2 3-6v-7l-4-8zm12 10-2 3v3h2l1-6zm24 7-4 7 4-2 3-3v-2zm-10 1 1 3 1-3zm-21 5-1 4 4-4zm-559 4-5 4-8 10-3 6-2 11 4-4 5-10 8-11 3-6zm110 0m447 0-2 3 1 3 2-6zm28 0-6 8-3 5-6 9v3l4-1 12-18v-6zm-483 1-7 4-9 1-1 2 2 1h7l7-4 3-4zm460 0-8 11-6 11v8h3l5-6v-2l5-1 3-4v-17zm-511 1v4l5 8 3 4-4-2-5-8-4 2-5 7 2 4 4 6-5-3-3-3-2 4v3l-2 1v3h-3l-6 8-4 8-4 6 2 4 10 10 9 5h13l13-7 5-4v-2l-6 2-14-1-16-6-4-5v-3l3 5 10 5h26l5-9-1-2-12-1-10-3 26-1 3-5-4-2-20-1-5-3 13 2h11l2-2-5-3-9-6-1-2 10 6 16 1 2-1-5 8-8 11-1 1v5l4-5 6-8 7-11 3-6v-4l-8 2h-7l-7-3-11-6-10-7zm55 4-1 2h2zm430 4-4 7-3 9-3 3-2 5-5 8 1 5 3 7h2l1-2 1-17 3 6 3-1v-10l1-2 2 6 3-1 3-8-1-8-3-7zm-455 3m-87 1m-310 2-4 4v2l3-1 3-5zm293 12-12 16-5 10-4 3h-2l-7 12-4 5v2l4-2 10-14 2-2 4-1-2 4-8 8-5 7 1 3 5-1 8-12 7-11 2-5-3 1-3 3 3-5v-2l5 1 1-4v-4l6-9 1-3zm579 0v3zm-522 1m-54 5m573 0-5 5v2l4-2 2-2zm-10 1v3l2-1v-2zm-564 1m-1 1m567 9-3 2v2l4-2 1-2zm-41 1v9l3 9 3 7h3v-3h-2l-1-11-4-10zm-430 3-2 5h2l2-5zm442-1-6 1v6l5 8 5-2 1-4-2-8zm-445 6 1 2zm-56 5-6 8-2 7 8 9 11 7 8 1 10-4 8-4 3-4-1-4-11 2-16-1-10-9-2-5 5 5 7 6 4 2 7 1-1-3-10-5-9-9zm486 6-1 2v16l3 1 1-6 3-1-1-4-3-8zm-442 7-1 2h2zm-2 2m-115 1m61 0-3 7-2 5h-4l-3 6-8 9 1 4 6 7 4 3 15 2 1-1 15-1 1-3-18-2-7-3 11 2h13l2-2 8-2 7-7 6-7-1-2-3 2-10 1-7 5-6 1-11-2-4-1h3l12 2 5-2-1-4-12-9-8-8zm-62 1m-285 1-5 10v5l3-4 3-5v-6zm281 1v3l2-1v-2zm11 2-5 6-1 6 5-5 3-5v-2zm-13 1m56 3-4 4 1 4 3-2v-2l3-1-1-3zm-341 9-3 9-2 8v6l2-1 4-13v-9zm332 0-2 6-5 1-4 5-3 3 1 4 11-9 8-8-1-2zm-44 2m-295 5-5 10-3 13-2 11-1 4 2 1v2l-5 5-1 4 2 2 3-3v-2h2v3h-2l-1 4h-3l1 4h2l1-3 5-1-3 4v6l6-1 1-2v-6l-2-3 2-4-3-9v-16l3-12 2-6v-5zm338 5-10 8v2l-3 1-1 4 4 5 8 4h17l-3-3-8-3 18 1 3-2v-2l-14-4-5-5-4-6zm-42 1m-4 5m532 2-3 7-2-4-3 1 1 5h2l1 5 5-5 2-5-2-4zm-506 2-8 6-11 9v2l8 7-6-5h-2l-1 9-2-6-5 1-7 6-7 8-1 2 6 7 10 6 14 4 7 1 12-3 8-4 6-5v-2l4-2v-2l-5 1-12 4h-9l-9-3h-2v-2l12 1h11l9-2 5-5-1-2-23 1v-2h21l10-6 7-1 5-5-7-3h-24l-7-6-1-2-3-2 1-5zm-11 1-1 3 5-2zm505 6-5 5-1 7-1 4-7 8h3l6-4 3-3 6-5 1-5-4 1-3 1v-2l4-2 3-2v-3zm-442 7 1 3 2-3zm-74 3-2 1v2l4-2zm506 2-5 7 4-1 4-5zm-438 1 1 3 1-3zm-101 4m95 3m410 4-6 5-6 7v5l-3-1-8 7-1 4 6 9 4 1 5-7-2-7v-2l5 3 4-2 5-6 5-3-1-5-5-8zm25 5-5 5h3l4-5zm-518 4-3 4v2h-2l1 3 8 7 5 5 13 1 3-2-11-8-8-6-5-6zm-56 9m-1 1m-2-5-13 10-5 5-14 10-15 15-11 7-12 9-7 5 1 3 3-3h2l-5 4-2 7v-7l-7 3-11 8-11 9-19 8-7 4-4 1-2 4v3h10l5-5 6-2v-2h2l-2 5 2-1h7l-9 4-13 4-1 3 7-1 9-3 12-3 4-3v-3l-2-1 8-6 7-1-6 4-4 2v3l7-2 9-6v-3l-2-1 2-2v-3l-6 1-8 4v2l-3-2 2-6v-2l6-2h2l-6 3-1 3 7-1 8-4 4-3 16-8 17-9v-2l5-2 10-9 2-4h2l6-9 1-3h2l1-4 4-2 7-8 5-7v-2l-4 2v2l-3 1-1 3-6 3-7 6v2l-4 2-4 3-3 5-11 7-10 7-1-1v-2l7-2 9-10 16-11 6-5v-2l4-2 12-12v-2zm50 5-5 5-1 3 3 5 8 7 8 4 5 1h8l11-4-1 2-15 4-1 3-4-4-14-7-5-4-4-5h-3l-2 6-6 1-10 9-6 5-1 2-5 2-4 4 2 7 6 7 4 3h5l1-3 5 1h4l4-4-7-3h11l6-2-4-4 11-1 7-3-2 5 5-2 9-6 11-7 8-6 11-7 1-3h-11l-3 4v2l-5-1-7-1-13-5h-2l-2-5-5-4zm-273 17-1 5 5 9 4 5 3 5 4 5 5 1 4 5-3 1 3 3h3l4 5 6 2 2 4 5 1v-5l-9-6 5 1 4 1 3-5-2-4-8-5-15-7-2 6v-9l-8-6-2-1-3-5-5-6zm-7 3v12l7 13 3 1 1-7-4-9-2-7-2-3zm784 1-7 5-1 3h4l6-6v-2zm-18 9-8 7-5 5-2 4 4-2 10-10 5 1 2 4 1-5-4-4zm-588 1-1 2 3-1zm55 8-6 5-9 3-10 7-7 4-12 8-9 7-8 7-3 4-3 1-3 5-2 4 7-4 7-5 5 1 6-2 4-5 8-7 9-8 3-3v-2h3l5-5v6l6 7 10 3 5-1 8-4h1l-1 3 7-1 1-3-2-5-6-2h-5l-1-4-5-10-1-4zm536 0-5 2v4l4-2 3-4zm-561 1-10 8-1 3 4-2 8-7zm78 2-11 6-6 2v6l5-3 8-6 7-4zm423 0-5 4 2 4 7 9 4-1 3-4-6-9zm-693 1-2 3v3l5 3v3h3v-8l-4-4zm197 0 1 2 1-2zm-217 3-1 8 1 5-3 4 2 5 2 3h5l2 10 1 6-5 8 1 5 2-1 1-6 5-1 8 5 1-2-4-9-5-4-1-3 4-2-4-9-4-1-2-6-1-1v-6l-1-7zm750 3-1 3 3-1v-2zm-733 4 3 10 4 5h6v-5l-11-10zm44 1-3 9v6l8 3 5-1v-15l-6-2zm-55 1 1 7h3v-5zm264 0-9 4-1 4 6-2 5-4zm461 1v3l4-1v-2zm-657 3v3l5-1-1-2zm143 0 2 7 3 5 7 1-2-4-5-5-3-4zm-3 2-2 5-4 2-8 7v7l5 10 4 1 6-5-6-9 6 6 6-1 7-4-1-3-6-4-5-12zm513 0-6 2-1 4-4 1-5 5-9 5 2 5h4l14-14 5-3 3-4zm-695 2v9l2 3 3 1-2 3 1 2h2l2 6 5-2 3-1-1-3-4-3 12 2 2 1h13l1-5-8-3-5-1-2 5-2 1 1-5-5-3-16-7zm96 3m-2 1-12 5 1 2 10-3 3-3zm-99 5m136 0m-162 2v4h3l-1-4zm104 0-6 2 4 2v2l-14 1-7 2-8 1v3h27l11-4v-4l-4-5zm16 1-2 3 5-1 1-2zm118 0-1 3 4-1v-2zm436 0m-600 2-1 4 12-1-1-2zm85 0-4 5v2l4-2 3-3v-2zm-140 1 1 7 4 11 5 5h2l2 4 8 4 5 4h5 3l3 2h5l1-1 11-2 1-1 10-2 1-3h-23v3l-23-12-3-3h-5l-3 2 2-3-1-5-7-2 2-4-4-4zm153 0-6 5-7 4-4 4v2l5-2 6-5 5-3 3-3v-2zm60 0-4 4v2l4-2 3-4zm428 0v3l2-1v-2zm-466 2-9 8 2 5 4 6 2 2 5-1 5-4v-2l-3-3-2-4-2-7zm-190 3-1 4 3 1v-5zm664 0-6 4 1 4h2l1 3h6l4-3-1-4-5-4zm31-1-8 3-2 5-2 3 4 1-1 2-3 1-1 4 4-2 14-13v-2zm-651 2-7 3 2 4 4 3 10 4 6 2h10l1-4-2-6-5-3-7-2-2-1zm130 3-5 6 1 3-4 5 1 5-4-3-5 1-4 2 5-5 6-3 3-4h-6l-10 5-7 2-6 4-6 3-5 5-6 2v-2l4-2 5-3-3-1-8 4-1 6-4 4 4 4-9 1-7 3h-2l-1-1-9 1 1-3 5-2v-3l-5 1-6 4 3 3-2 4-6 3v7l6 5h2v-6l2 9 3 15 3 2 2-7 2 13 2 10 1 7 6 4h6l-2-4-1-1-1-8-1-10 6 18 5-1 4-5 4-10 3-4-2-4-10-2-9-5-4-2-7-11-1-3 3 5 2 3h2v-9l-2-6 6 9 9 6 11 5h3l-2 1v2l-7-2-8-7-5-3h-2v9l7 4 16 4 5-4 4-7-1-8h9l5-6-5-5-5-4 5 2h9l8-6 3-4v-2l4-2 3-5-6-5 10 1 6-4-1-4-6-9-1-2h-2v-3zm473 0-4 4 1 2 5-4v-2zm63 1-1 2 3-1zm-639 2v10h16l4-6v-4zm140 0-3 3h5l1-3zm444 0-5 6 4 4 7-1 2-4-6-5zm-505 3m-5 1-4 3v3l5-1 2-5zm492 0-1 2h3v-2zm63 0-1 3 4-1v-2zm-53 2-4 4 2 6 4-1 2-2-1-4-1-3zm-641 1-1 2h3v-2zm669 0-4 3v2l-6 2-1 5 1 4-6-4-4 3 1 4 4 2 10-7 5-4 7-5-5-5zm21 2-7 6-7 4-2 2v4l-5 1-1 5 4-1 3-3 5-2 1-5 4-2 8-6v-3zm-684 1v3h2v-3zm615 1-3 3v2l4-2 2-3zm11 1-11 7-7 8-12 6v2h7l5-3v-3l3 2 5-1 3-3 7-3 5-3-1-9zm-444 2m-175 2v3l4 2-3-5zm71 0-7 4v2l9-3 2-1v-2zm529 0-8 5v1h5l4-4zm-610 4v4 5l3-1v-2l2 1 1 4-3 1v5l3 1 1-6 4-2-3-4h-2l-2-4zm174 3 1 3 2-1v-2zm467 3-2 5-4 2v2l3 1 8-5-1-4zm-552 1m508 2v3l2-2zm-520 1-1 2 3-1zm-66 1 2 5h2l-1-4zm59 1-1 4 3 1 1-4zm26 0-2 3h6v-3zm494 0-1 3 3-1v-2zm-527 1-2 3 4-1v-2zm558 0-1 4h3l1-4zm38 0-3 3v3l6-2 1-4zm-630 0-6 1-5 1 2 4 8-2 9 1-1-3zm17 2-4 1v2h17l1-3zm552 0m33 0-4 3-3 1v2l-4 2-3 4-1 3-5 2-1 2 7-1 8-7-1-4h2l1 3 4-2 3-5-1-3zm-35 1v2h2v-2zm22 1-7 3v3l6-2 3-4zm33 1-5 4-3 4 1 2 9-7v-3zm-52 1-2 4 4-2 1-2zm-593 1v4l5 4 1-1-1-7zm21 1-2 1v2l10 3 5 1 4-2v-3l-4-1h-6zm560 1-9 6-4 4v2l6-1 8-7 2 2 6-2-1-2h-4l-1-2zm9 1m7 2-2 3-1 2-4-2-6 7-11 4-18 11-7 5-6 2-1 5h-2v-2l-4 1-11 6 2 5 5-1 14-6 7-4v-4l4 2 11-6 10-7 7-7 8-4 4-1 5-7v-2zm-587 1m46-1-2 1v2h3l-3 7-1 3 3 5 2 7 3 1-1-22zm533 2m-574 1 3 9 7 8 3 1-1-5-4-1-2-6-3-6zm7 0v5l5 2 2 6 3 3 3-1v-2l-2-1 1-2 1 2h3v-5l2 10 4 2v-16l-4-1-9-1zm30 0-5 5v6l1 2 3-1 2-9 1-3zm-45 1-1 4 4 7h2v-5l-4-6zm57 5-1 1 1 7h2v-7zm498 0-5 3v3h5l5-5v-1zm36 0-3 2v4l4-1 3-2-1-3zm-456 3m-1 1-1 2h2zm-70 2-3 3-3 1 1 11 8 12 5 4-1-12-3-15zm479 2-6 4-2 3 5-1 4-2zm37 1-4 2v2h5l1-3zm-447 2 2 4-8 1-1 9-1 6 2 6 2-2 1-9 5-3 1 5h3v-6h-3v-6l3-1-2-4zm466 0m-25 2 1 2 1-2zm-45 4-2 4 4-4zm-485 1-1 4 1 4h2v-7zm524 1-2 3 5-2zm-545 2 4 8 2 6 3 3h3l-1-5-5-8-4-4zm27 1v10l5 4 2-3-2-7zm508 1-13 7-1 2 6-1 10-4 1-4zm21 2-2 3h6l-3-3zm-519 5-1 5 9 9-2 1v2l7 3 2 1-1-4-8-11-5-6zm-16 2 1 4 2-1-1-3zm-7 2v6l4 4 4 1v-4l-4-2-2-5zm502 1-2 3 4-1v-2zm29 0-1 3h3l-1-3zm-435 1 4 9 2 2h3l-2-5-5-6zm-83 2 1 4 3 3h2l-2-5zm459 0-10 5-3 4 4 1 7-5 6-3v-2zm23 0-4 2 1 2 5-3zm-7 3-10 5-10 3-12 6-11 3-4 2-9 2-12 5-1 2 12-1-6 3v2l9-1 5 1 6-2-3-2 7-4 6 2 8-4 6-4 7-3v-5h2v-2l6-2 5-4zm-408 4-1 3 1 2h2v-5zm-6 1v5l2 1v-5zm380 2-9 5v1h8l4-4v-2zm-353 2 1 5 3 3-1-6zm384-1-8 4v1l7-1 2-4zm-420 3 5 15 3-1-2-6-4-8zm269 0m-1 1m-316 1v3l3 3h2l-1-5zm44 0-1 8-6 2 3 3h9l-3 3v5l4 2h3v2l4-1 1-3-4-5-6-10-2-6zm22 0-1 3 3 3 1-3zm-28 0-7 2 1 4 4 2 6-3-3-5zm57 3-1 3v5l6 5 4 4h3l-2-4-7-7-1-6zm-7 1m20 2v3h2l-1-3zm-99 1 1 3 5 3 4-1-5-4zm57 2 1 4 8 12 3-1-5-6-3-6zm-45 4 1 2h2v-2zm55 0 2 5 8 8 3 5 8 6 2 2 1 4 6 2h4l-2-4-5-4h-2l-1-5-5-3-10-9-4-5zm317 0-8 5-3 3-5 3 1 2h2v3l6-1 3-2 5-2 3-1v2l-5 1-6 3 3 1 9-3 2-1 3 1 5-2v-2l-5-1-2-3h-5l1-3-2-3zm-358 2-1 4 5 2-2 2 1 4 5 2-1-4v-3l1-1v-5zm89 1v3l4 2v-2zm-29 4m15 0 3 4 2-1-2-3zm7 0 2 4 6 9-3 3 7 5h3v-5l-5-7-2-7zm-15 2-1 5 1 1h7l-5-5zm197 0-10 5 1 2h17l-2-5-1-2zm-239 1 1 3v-3zm176 0-2 1 1 5 1 6-2-2-4-8-9 1v2h-13l6 12 2 5 5-1v-8l2 1 1 4 4 1 14-4 1-1v-8l-3-6zm137 2-16 8v2h2v2l13-2 1-3-3-2 6-2v-3zm-205 3-2 1 2 6 2 1 8-2 1-4-4-2zm14 0-1 7 6 7 4-2 2-3-1-8-1-1zm194 0v4l4-2zm-330 1 4 5 3-1-4-4zm13-1-3 1 1 5 7 3 3 4h4l-2-4-8-9zm143 0-5 1 2 10 3 5 2 1h7l-1-7-5-10zm81 3-5 1 4 10 9-2-1-6-2-3zm-167 1v2l6 1-3-3zm16 0 1 2 2-1zm142 1-5 2-1 5 2 4h5l3-2-1-5zm-119 1-2 2 2 2h3l-2-4zm105 1-2 1 1 5h-2l-1-3h-5v4l2 4 6-1 2-1 7 1-1-4-2-6zm113 0-11 5-7 2-1 2 10-1 11-5 4-2-4-1zm-237 3-1 4 2 2 11 2 7-1-2-4-7-1-3-2zm-41 1v2h2v-2zm98 0-4 4v4l2 1h7v-3l-3-6zm114 0 1 2 2-2zm-63 2-2 3 3 4 4-1-1-6zm56 0-3 1v2h6v-3zm-219 1v2h4v-2zm142 2-2 4 5 1v-4zm10 0-2 1v3h8l1-4zm44 0-8 3v4l8-1 2-2v-4zm-186 1 1 2h2v-2zm194 0-1 2h3v-2zm-133 2 1 3 7 1v-3l-2-1zm162 0-1 1v6l9-1 1-3-2-2zm-56 1v3l4-1v-2zm46 0-7 4h-6l-1 2 5 3 2-1v-2h5l1-3 4 2h3l-1-5zm-193 1 1 2zm25 0-1 5 3 2v-6zm-9 2-1 3 3-1zm43 0 1 3h2v-3zm10-1-4 1 1 4 5 3h16l6 2-1-4-2-5h-9v3l-4-3zm-38 2v4l6 2h4l-2-4-4-2zm63 0 1 4 2 2h3v-4zm-92 1 1 3 11 3-2-4-3-2zm102 1-3 4 1 2 5-4v-2zm9-1-3 1v3l4 1 2-3zm7 1v3h2v-3zm8 0v4l6-1v-3zm44 0-2 1v2l5 2 1-3-1-2zm-144 3v2h2v-2zm14 0v2l2 1 13 1 2-1-1-3zm107 0v4l3 2h5l-1-4-2-2zm12 0-1 3 4-1-1-2zm-21 3-2 3 1 1h7l2-1-1-3zm-15 3-5 4 2 1 12-2v-3zm-112 1 1 2 2-1zm102 0-1 2h6l-1-2z" fill="#1B1B1B"/>
<path transform="translate(1273,279)" d="m0 0h7l-5 4-15 8h-2v2l-10 5-10 6h-2v5l-3-1-16 9-12 9-11 8h-2l-1 4-7 4-2 3h5l-5 5-7 4-3-1 7-6h-2l-6 5-1 5-15 8-7 6-11 8-12 9-1 3-5 3h-2v2l-7 5-5 5-13 12-9 7-13 11-5 5-10 8-6 3-8 7-2 3h-2l2-4 7-8-5 5-15 14-8 7-15 13-4 3-1 4-6 3-30 30-10 13-7 9-6 9-7 10 8-7 9-9 4-2 5-1-1 3-2-1-2 7-3 3-4 2-3 5-10 11-7 8-10 12-5 7-3 1-3 5-7 10-10 13-1-2-5 4-4 3 2-5 7-11 5-7-4 3h-2l-2 4-4 3v-3l5-6 7-8 8-9 4-5h2l2-5 7-8 6-9 3-5 5-5 6-8 8-11 8-8-3 1-3 3-11 7-26 26-8 10-5 6-1-2 4-7 8-11 12-12 14-11 7-6 4-2 5-7 6-4 16-15 9-9 7-8 9-10 8-7 13-12 8-8 7-9 9-9h2l2-4 17-17 8-7 13-12 10-8 2 1-8 8-10 9-8 7-10 10h-2l-2 4-15 15 3-1 5-5 10-7 4-5 8-7 12-11 5-4 11-6 15-10 5-5 10-7 18-13 3-5 16-11 8-6 5-4 1-2 7-3 18-14 6-4 13-8 10-7 1-3h-5l3-3 8-4 2 1-4 3v3l14-8-9 1 5-4 12-4zm-21 12m-179 134-7 7h3l6-5v-2zm-8 8m-8 7-2 4 4-2v-2zm-6 4-2 4 5-4zm-14 7m-2 1-3 3 1 2 4-4zm-4 5m-79 79m-21 34m-1 7-7 7-8 7-5 5v2h-2l-1 4 8-6 12-12 5-7z" fill="#1B1B1B"/>
<path transform="translate(1058,470)" d="m0 0h1v9l4 6 4 2 12 2 2 1h6l2-2 4-1 2-5 4-1 3 2 1-1 2 1-2 5v2l-1 3-4 4-3 1-5 6h-2l-2 4-4 4-6 8-7 9-13 20-13 18-11 14-16 22-7 11-4 2v6l-12 14-3 2-3 7-3 4h-2l1-5 3-6 1-4-8 3h-7l-7-3-11-6-10-7h-2l2 5 4 6 4 5-6-2-5-7v-2l-5 5-3 4 2 4 4 6-2 1-5-4-2-2-3 7 1 5-4-2-6 8-3 7-2-1 1-4 8-16 6-9-1-4 4-2 4-5 2-1 3-9 3-1 8-11 6-7 8-6 2-2h5l5 4 15 5 4 2h-11l-16-8-7 5 2 4 3 3 3 5-5-2-4-3-6 1-6 9-4 5 9 7 3 3 5 3 5 1-3-6 3-3-3-4 8 2 11 1v-3l-10-3-7-3-5-6 4 2 3 3 10 3h19l4-5-11 2h-10l-3-2 15-1 11-3 3-4 4-1-2-2 4-5-11-1-9-4v-4l-2-1v-3l5 2 4 3h24l3-3-2-4-11-3-20-9-1-2 6 1 8 4 16 3h4l-9-3-9-4v-1l25-1 4-3-21-4 1-2h21l4-1v-2l-15-5-3-3 1-2 20 6 4-2 1-3-9-1-12-4-6-4 3-1 18 6 8 2 2-4-1 2h-4l1-4-16-3-10-5-3-3v-3l4 2 3 3h2l-2-3 1-3 8 6 12 1-1-3-4-2v-1h19l4-1 6-1 4-6 4-3 1-3 4-3 2-5 3-1v-2h-4v2h-2v-2l-12-2-14-7-3-6v-7zm41 14-2 1v3l3-1 1-3zm-71 83v3l5-1-3-2zm-27 51m-8 1-7 4-9 1-1 2 2 1h7l7-4 3-4zm4 5-1 2h2z" fill="#252525"/>
<path transform="translate(1063,231)" d="m0 0m-1 1m-1 1 1 3 4 2-1 2-12 5-9 5-7 2-8 5h-4l-1-2-3-1 3 4-7 4-29 13-18 8-8 5-28 13-11 6-5 3-17 8-14 8-10 7-7 5-9 4-21 14-14 8-9 7-12 8-8 6-7 8-11 9-11 10h-2v2l-7 4-14 14-7 6h-2l-2 4-13 13-7 6-5 5-4 5-6 4-3 6h-5v-5l11-10 4-2 4-6 6-8 9-7 9-9 5-6 5-2 1-3 4-3h2l2-4 4-2 2-4 8-7 16-12 9-8 3-1 1-3 14-10 14-12 9-7 7-6 17-11 3 1 2 1-1-4 5-5 17-11 4-4 8-3 8-7 28-16 17-10 6-3 4 1-3 3-2 5-5 1v-2l-4 1-7 4-4 7-1-3-6 2-10 6-14 9-4 4-6 4-1 2 9-3 1-3 8-1 9-5 2-3 6-1 8-5 10-4 9-4 9-5 3-3 10-4 2-3-3-1 5-4 1-2-11 3-3 5 6-1-3 3-10 4-1-3 4-2 1-2h-4v-2l26-13h5l-5 5-2 1-1 4 18-8 2-3-11 1 2-3 9-4h6l14-6 9-3 13-1 13-6zm-47 17-8 3-2 4 6-1 8-5zm-30 20m-102 50m-3 1m-22 15 1 2 1-2z" fill="#1D1D1D"/>
<path transform="translate(1241,168)" d="m0 0h73l4 1 1-1h11l5 3 4 2-1 3-5-1-20-1v3l9 1 7 2 11 1 10-2v4l5 2 3 1-1-4 6 3 6 2-1 2-13 1-17-4-10-2-13-1-10-2-14-1-8-1h-35l-27 2 2 5-9 4-13 5-9 1 2-2 6-2 1-2-12 2-3-3v4l-6 3h-4l1-3 2-2-6 2-6 3h-9l-15 9-2 1-9 1-9 6-21 9-16 8-7 4-7 2-6 3-3-4v-3l7-4 7-2 10-6 17-8 7-3 6-3 8-2 12-7 12-3 9-4 10-2 9-4 9-2 19-7 17-3z" fill="#1E1E1E"/>
<path transform="translate(1092,421)" d="m0 0h2l-2 4-12 11-11 9-9 8 4-1 6-4 3-4 7-3 3 3-2 1-1 6-5-1-3 1-1 8-7 2-2 4 4 6 11 7 4 2v1h-8l-7-4-3-5-5-3v-2l-7 5-1 2-1 13 5 2 2 1v2h2l2 4 16 2h9l-1 8-6 3-6 2-3 5-3 2 1-4 2-4-17-1-6-3v-2h7l7 2 9 1-5-5-12-7-3-4-3-7-1-5-4 5-1 1v10l3 6v2l-4-2-3-5v-2h-3l3 12 5 9 3 4-1 2-5-4-8-12v-5l-6 5-4 7-2 6v8h2l3 6-5-2-7-6-4 1-8 8-7 8-3 4-1 5-4-2-1 2v6l6 7-5-2-6-5-4 6-8 8h-2l2-4 8-11 10-16 9-13 4-4h2l-2 4-10 14 4-4 2-3h2l2-4 5-6-2-4-1-3-5 3-4 1-4 5-8 7-7 9h-3l-2 5-5 4-2 4-1-3-5 1 6-7 8-8 3-4 5-2 4-5 5-5 11-9 9-8 10-7 5-3 4-6 7-7 9-12 14-15 11-10 11-9 12-10zm-45 45-8 8-2 3 1 3 7-8 4-6zm-12 14v2l-4 2-1 4 4-2 3-4v-2zm-8 10-8 7-2 4v3l3-1 4-6 4-5zm-14 13-2 3h3zm-13 7-2 2 1 4 5-2 1 2 4-1 2-5h-3l-1 2-2-2z" fill="#1E1E1E"/>
<path transform="translate(953,637)" d="m0 0 10 5 18 1-2 6-5 6-6 8v3l8-11 5-8 2 4-7 12-11 15-9 13-8 11-12 16-7 8-3-2 12-13-3 1-10 1-7 5-6 1-11-2-4-2 1-2 5 2 9 1 4-1-1-4-11-8-8-8-2-1-1 6-4 6h-4l-2 6-8 9-1 3-6 4-5 4-4 5 2 5 6 4 10 2-1 2h-11l-8-7v-2l-4-1 2-6-7 4-9 7-5 4-1 2 4 2 5 6-4-2-5-4v10l-2-1-1-5-5 1-5 5h-2l-2 4-5 6-1 2-1-5h2v-8l3-5 7-1 9-9 8-12 5-5 9-11h3v6l-4 1-5 8 4-2 9-8 5-5 9-10 5-5 11-13 4-2 2-5 5-6 9-11 4-4v4l-3 5 2 4 9 9 9 5h13l13-7 5-5-4 3-16-1-16-6-5-6v-6l2 3 3 5 9 4h26l4-9-12-1-12-4v-1l28-1 2-4-3-1-20-1-7-4 3-1 12 2h11v-2l-10-5-3-3zm12 31-2 5h2l2-5zm-3 5 1 2zm-56 5-6 8-2 7 8 9 11 7 8 1 10-4 8-4 3-4-1-4-11 2-16-1-10-9-2-5 5 5 7 6 4 2 7 1-1-3-10-5-9-9zm44 13-1 2h2zm-2 2m-66 10-4 4 1 4 3-2v-2l3-1-1-3zm-9 9-2 6-5 1-4 5-3 3 1 4 11-9 8-8-1-2zm-32 23-1 3 5-2zm-11 16-2 1v2l4-2z" fill="#191919"/>
<path transform="translate(688,481)" d="m0 0h3v5l-5 4-7 8-13 13-6 9-8 8-5 6-3 5-11 12-11 15-14 18-7 11-6 8-8 16-11 23-5 7-3 9-3 2-4-1v6l-2 1 1 1 4-4 1 2-3 8-2 2h-5l-1 5-4 6-2 5h2l2-6 4-6 2 1-1 6-7 14-3 13-4 12-3 15-3 11-1 14 2 11 1 5-5 2-2 2h-4v-2l4-1v-8l-2-3 2-4-3-9v-16l3-12 3-10 3 2-1 12 4-13v-8h-3l-5-5 4-11 4-5 2-7 4-6 4-10 4-7 9-19 3-6 2-1 5-10 7-10 14-23 4-4 12-19 7-9 10-15 5-7 8-7 10-10 8-10 9-9 3-5 4-4 5-6 5-1 1-5zm-113 153-4 4v2l3-1 3-5zm-28 62-5 10v5l3-4 3-5v-6z" fill="#232323"/>
<path transform="translate(749,777)" d="m0 0 2 2-15 12-4 4-14 10-15 15-11 7-12 9-5 4h-2l1 2 3-3 3 1-5 4-3 9h-1v-8l-8 4-5 4-11 9-8 5-13 5-9 5h-4l-1-2-20-1v9l-2-3-1-6-5-2-7-2-2-1h-10l-3 2-4-1 3-2h3l-3-3-4-3 2-1 12 2 2 1 13 1v-5l-12-4 1-2 11 1v-16h3l1-8 1-1h20l25 1v1l-11 1h-11v4l26-2 9-2 7-3 4 1-13 5-9 2-25 2-3 12h-1v-13h-13v-1l5-1h10v-3l-3-1-15-1v7l6 3 7 2v1l-9 1-5 3h-2v6h21l8-2 16-2 10-4h4l10-5-1 3-7 4-1 3 4-3h2v-2l11-6 8-6 6-5 4-4 1-2 6-3 2-4v-2l10-7 7-3 16-11 12-10zm-51 38-1 2 3-1zm-108 28v3l5-1-1-2zm54 7m-2 1-12 5 1 2 10-3 3-3zm-21 7-6 2 4 2v2l-14 1-7 2-8 1v3h27l11-4v-4l-4-5zm16 1-2 3 5-1 1-2zm-46 2-1 4 12-1-1-2z" fill="#2B2B2B"/>
<path transform="translate(874,724)" d="m0 0 5 5 6 5 15 2 1-1 15-1 1-2h-11l-11-2-4-4 7 1 5 1h13l2-2 10-1-1 4-10 11-7 9-4 5-17 17-8 7-11 10-13 10-15 11-17 12-15 10-10 7-11 6-1-4 6-4 8-6 16-9 8-6 14-9 5-4 7-4 1-2-10-1-3 6h-10l-11-4 2-2h10l2-1-16-11-6-6 1-2 8 7 10 4 10 3 7 1 12-3 8-4 5-4 5-6-13 5-10 1-5-1-9-3v-2h23l9-2 4-5h-23v-2l21-1 10-6 7-1 4-4-6-2h-13l1-2 9-1-11-5v-1l19 1 3-1v-2l-8-1-8-3-7-9zm30 24 1 3 2-3zm-6 6 1 3 1-3z" fill="#1F1F1F"/>
<path transform="translate(1063,231)" d="m0 0m-1 1m-1 1 1 3 4 2-1 2-12 5-9 5-7 2-8 5h-4l-1-2-3-1 3 4-7 4-29 13-18 8-8 5-28 13-5 2-1-4 6-4 10-4 9-4 9-5 3-3 10-4 2-3-3-1 5-4 1-2-11 3-3 5 6-1-3 3-10 4-1-3 4-2 1-2h-4v-2l26-13h5l-5 5-2 1-1 4 18-8 2-3-11 1 2-3 9-4h6l14-6 9-3 13-1 13-6zm-47 17-8 3-2 4 6-1 8-5z" fill="#2C2C2C"/>
<path transform="translate(1193,846)" d="m0 0 3 1-9 9-1 2 4-3h2l1-3h2l-1 4-1 2 5-2-5 6h-4l4 6-1 3-5-3-6 2-1 4 3 3h-3l-4-3-2 4-2 2 5 5-5 2-2-4v-3l-5 4-1 5-1-3-7 3-8 5-7 8-10 5h-2v2h7v2l-8 4-3 4-5-1v-2l-7 4-5 3h-2l-2 6h-6l-3 1-1-4 9-5 6-4 2-3-7 3-4 4-9 3-7 4 1-3 10-6 12-8h2l1-3 21-14 4-4 4-1-1-4-2-1 1-2 4 2 5-1 12-8 6-6 5-2 3-5 5-1 2-4 8-5zm-2 13m-14 3v3l2-1v-2zm-9 9-4 4 1 2 5-4v-2zm-10 7-1 2h3v-2zm-10 7-3 3v2l4-2 2-3zm-8 5-8 5v1h5l4-4zm-13 13v3l2-2zm-7 3-1 3 3-1v-2zm8 3m-2 1v2h2v-2z" fill="#404040"/>
<path transform="translate(967,587)" d="m0 0h5l5 4 15 5 4 2h-11l-16-8-7 5 2 4 3 3 3 5-5-2-4-3-6 1-6 9-4 5 9 7 3 3 5 3 5 1-3-6 3-3-3-4 8 2 11 1v-3l-10-3-7-3-5-6 4 2 3 3 10 3 12 1v4l-3 3-1 2-9 1 1 1 8 1-3 6 5-3 4-6 9-5 4-1-1 5-5 6-6 7-3 2-3 7-3 4h-2l1-5 3-6 1-4-8 3h-7l-7-3-11-6-10-7h-2l2 5 4 6 4 5-6-2-5-7v-2l-5 5-3 4 2 4 4 6-2 1-5-4-2-2-3 7 1 5-4-2-6 8-3 7-2-1 1-4 8-16 6-9-1-4 4-2 4-5 2-1 3-9 3-1 8-11 6-7 8-6zm30 37-1 2h2z" fill="#272727"/>
<path transform="translate(953,536)" d="m0 0 3 1-10 12-14 21 8-7 9-9 4-2 5-1-1 3-2-1-2 7-3 3-4 2-3 5-10 11-7 8-10 12-5 7-3 1-3 5-7 10-10 13-1-2-5 4-4 3 2-5 7-11 5-7-4 3h-2l-2 4-4 3v-3l5-6 7-8 8-9 4-5h2l2-5 7-8 6-9 3-5 5-5 6-8 8-11 8-8zm-22 34m-1 7-7 7-8 7-5 5v2h-2l-1 4 8-6 12-12 5-7z" fill="#242424"/>
<path transform="translate(800,722)" d="m0 0h2l-2 4-4 5 5-3 2 1-13 13-2 4v3l-6 4-9 10-8 11-5 5-10 15-1 2h-2l-2 6-5 6-7 2v-2h2l1-4 8-7 8-12-6 5-2 4-6 3-5 5h-2v2l-6 5h-2l-1 4-10 7-13 9-3-1 4-4 6-3 8-9 16-11 4-4h2v-2l8-7 7-7-1-4 7-6 5-2 8-10 10-12 7-8 6-6 4-8 3-1z" fill="#171717"/>
<path transform="translate(1459,491)" d="m0 0h2v11l-4 9-2 8-1 6-7 13-3 10-4 9-2 7-8 12-1 9-3 1-2 5-3 3-4 11-1 3-7 7-3 9-3 3h-2l1-5 9-17 5-7 4-10 3-4 2-8 4-8 3-9 6-12 2-11 7-11 7-14 1-10z" fill="#242424"/>
<path transform="translate(961,606)" d="m0 0 4 2 3 3 10 3 12 1v4l-3 3-1 2-9 1 1 1 8 1-3 6 5-3 4-6 9-5 4-1-1 5-5 6-6 7-3 2-3 7-3 4h-2l1-5 3-6 1-4-8 3h-7l-7-3-6-3 3-1 5 1-3-6 3-3-3-4 8 2 11 1v-3l-10-3-7-3zm36 18-1 2h2z" fill="#282828"/>
<path transform="translate(777,573)" d="m0 0 5 1 4 3 1 7-5 4h-2v3h-3l-1 4h-9l-7-6-3-4 1-6 14-5z" fill="#F6F6F6"/>
<path transform="translate(1184,786)" d="m0 0v3l-26 26-14 11-14 13-5 5-9 6-11 8-9 7-10 7-8 6-17 11-13 9-11 6-14 8-3-1 8-5 18-10 5-5 7-3 9-6 11-7 14-11 10-7 1-4 7-3 13-10 5-4h2l2-4 11-8 8-7h2l2-5 10-8 16-15z" fill="#191919"/>
<path transform="translate(1440,340)" d="m0 0 4 2 11 8 2 4 5 3 4 3 4 2 9 14 5 6-1 3-5-4v10l2 3 3 12 1 9-1 13-2-1-4-19-1-11-7-11-4-9 1-3 5 9 2 2-1-7-5-12-4-5-10-6-6-5-7-8zm34 46 1 3z" fill="#1E1E1E"/>
<path transform="translate(535,720)" d="m0 0 3 2-1 12 3-11 3-2-2 16-4 14-1 14 2 11 1 5-5 2-2 2h-4v-2l4-1v-8l-2-3 2-4-3-9v-16l3-12z" fill="#2D2D2D"/>
<path transform="translate(1371,674)" d="m0 0h1v22h-2l-1-5v-7l-5 5-6 11-14 18-7 8h-2l-1 5-7 6-2 4 1 12-4-5-4-9-5-5 1-3 6 7 4-1 7-9-8-16 1-2 7 10 2 4 5-5h2l2-5 2-3-2-8 4 2h4l6-9 3-6 3-1 2-7z" fill="#292929"/>
<path transform="translate(953,637)" d="m0 0 10 5 18 1-2 6-5 6-6 8-1 5-2 1-2 4-2-2 3-6-12-1-12-4v-1l28-1 2-4-3-1-20-1-7-4 3-1 12 2h11v-2l-10-5-3-3z" fill="#1D1D1D"/>
<path transform="translate(954,272)" d="m0 0 4 1-3 3-2 5-5 1v-2l-4 1-7 4-4 7-1-3-6 2-10 6-14 9-4 4-6 4-1 2 2 1-10 6-9 5-6 5h-3l1-3 5-5 1-3 11-7 4-4 8-3 8-7 28-16 17-10z" fill="#373737"/>
<path transform="translate(745,464)" d="m0 0h6l2 1-1 9-2 9v7l-4 6-4-2-6-9v-8l3-8 4-4z" fill="#FAFAFA"/>
<path transform="translate(741,427)" d="m0 0 4 1-1 5-6 5h-2l-2 4-13 13-7 6-5 5-4 5-6 4-3 6h-5v-5l11-10 4-2 4-6 6-8 9-7 9-9 5-6z" fill="#131313"/>
<path transform="translate(812,991)" d="m0 0 3 2 3 9v3l5-1 2-5h2l1 4 13-1 14-5 6-2h8l-2 2-15 5h-2l-1 10-2-2v-6l-7 1-2 3-1-2h-6l3 9-1 3-3-3-3-7h-9v2h-13v2l-7-2h-3v-2l8-3 11-1-2-6z" fill="#131313"/>
<path transform="translate(653,676)" d="m0 0h8l3 3 1 8-2 4-7-1-5-2-9 1-3 8-4-1 2-16 3-2z" fill="#F6F6F6"/>
<path transform="translate(1048,486)" d="m0 0 8 4v2h2l2 4 16 2h9l-1 8-6 3-6 2-3 5-3 2 1-4 2-4-17-1-6-3v-2h7l7 2 9 1-5-5-12-7-3-4z" fill="#202020"/>
<path transform="translate(966,569)" d="m0 0 1 2 4 2h-3l-4 1-6 8-6 10-5 6-5 2-1 2h-2l-2 6-7 7-8 11-10 11h-2l-2 4-8 10-7 9-3-1 6-7 12-16 4-5 5-5 6-8 5-5 9-11 6-9 9-9 6-8z" fill="#2C2C2C"/>
<path transform="translate(1299,592)" d="m0 0h2l-1 4-6 10-7 10-6 8-16 24-7 9-11 18-7 10-6 6h-3v-3h2l2-4 2-2 1-4 8-8 14-22 7-8 6-10 4-6 2-1 3-7 7-8 6-10z" fill="#A8A8A8"/>
<path transform="translate(940,967)" d="m0 0h5l-3 3-6 3-7 2-10 4 10-3h3v3l-8 3-11 2-2 7h-3l-1-2h-11l-12 4-2 1-11 1v-2l9-4 12-3 11-4 18-8 11-3z" fill="#636363"/>
<path transform="translate(1483,488)" d="m0 0h1l-1 29-3 11-2 6v11l4-4 1-2 1-11 1-2h5l-2 1-1 12-1 3 2 1-4 1-2 5h-2l-2 4-1-5-2 1-2 5-2 1 1-8 4-15 1-14 2-3 1-10h-2l1-8z" fill="#333"/>
<path transform="translate(920,938)" d="m0 0 3 1-4 4-5 2-13 7-5 6 7-1-2 2-12 4h-2l1-3 5-2-4 1-6 4-25 10-22 8-8 1 1-3 18-6 11-3 19-8 15-8 7-4 16-9z" fill="#484848"/>
<path transform="translate(1498,430)" d="m0 0 4 3 2 10 4 3-1 22 1 4-2 7-3-2-2-5 1-12v-12l-5 3-1 4h-3l2-9 2-15z" fill="#494949"/>
<path transform="translate(1273,279)" d="m0 0h7l-5 4-15 8h-2v2l-10 5-10 6h-2v5l-3-1-14 8-4-1 15-9 3-3v-2h-5l3-3 8-4 2 1-4 3v3l14-8-9 1 5-4 12-4z" fill="#2A2A2A"/>
<path transform="translate(1419,332)" d="m0 0 7 4 5 3 4 3 5-1 2 2 2 5 3 5 6 4 5 5v2h2l5 9 1 6-4-4-4-6-3-4v-3l-6-2-14-14h-6l-6-6-8-4-1-3z" fill="#171717"/>
<path transform="translate(538,789)" d="m0 0 3 12 3 9 5 6 6 5 8 4 4 3v2l-6-1-11-6-3 6-1-4v-6l-10-7-3-5-4-6 5 1 3 5 2 1-4-8-5-6 1-3 2 3 3 1 1-5z" fill="#4C4C4C"/>
<path transform="translate(761,982)" d="m0 0h57v2l-3 1-15 2-12 2h-3l-1 3-2-3-10-3-10-2z" fill="#4E4E4E"/>
<path transform="translate(1084,900)" d="m0 0 4 1-5 4-20 11-7 5-7 3-20 10-10 4-12 6h-2l2-4 12-6 27-12 15-9 16-8z" fill="#141414"/>
<path transform="translate(1175,861)" d="m0 0h2l1 5-5 4h-2l1 3h-2v-2l-5 4v3l-5 2v-2l-2 1 1 2h-2l-1 3-5 2-4 1-5 5-2-1-9 6-2-1 6-6 4-1-1-4-2-1 1-2 4 2 5-1 12-8 6-6 5-2 3-5z" fill="#5E5E5E"/>
<path transform="translate(1357,334)" d="m0 0 4 2 4 3h6l2 2-6 3-5 1-16 1-15 4-26 8-8 3h-3v-2l6-3 12-3 15-7 33-5v-3z" fill="#1D1D1D"/>
<path transform="translate(1459,491)" d="m0 0h2v11l-4 9-2 8-1 6-7 13-3 3-3 5-2-2 1-8 7-11 7-14 1-10z" fill="#434343"/>
<path transform="translate(1229,693)" d="m0 0v3l-10 11-7 9-9 10-8 10-9 9-4 5-5 2-1 5-7 3-3 1 2-4 17-17 8-7 9-9 9-11 13-16z" fill="#F2F2F2"/>
<path transform="translate(1e3 505)" d="m0 0m-1 1m-2 1 2 1-2 1zm-1 2v3 4l-5 3-4 1-4 5-8 7-7 9h-3l-2 5-5 4-2 4-1-3-5 1 6-7 8-8 3-4 5-2 4-5 5-5 11-9z" fill="#161616"/>
<path transform="translate(1042,402)" d="m0 0v3l-6 7 5-3 2 1-4 2v2l-9 6-7 7h-2l-2 4-13 13-4 6-3 1 1-4 8-11 4-5 1-3 4-1z" fill="#1F1F1F"/>
<path transform="translate(789,730)" d="m0 0 1 3-40 40-9 7-11 9-5 4-13 8-2-1 11-8 12-9 13-10 8-9 16-14 7-9z" fill="#1E1E1E"/>
<path transform="translate(1307,264)" d="m0 0h2l-1 4-6 2v2l7-3h3l2 5-7 1-12 3-6 3-5 3-2-1 4-3h2v-2l-10 1 5-4 7-3 7-4zm-13 9-1 2 4-1z" fill="#222"/>
<path transform="translate(871,603)" d="m0 0 1 3-6 8-7 10-7 11-8 11-3 3-7 10-8 12-8 8-5 6v-3l10-13 3-2 3-6 4-5 7-10 7-9 10-15 7-11z" fill="#414141"/>
<path transform="translate(1135,320)" d="m0 0 3 1-10 7h-2l-1 3-8 5-13 10-14 12-8 7-4 5-4 3h-2l-1 3-8 7h-3l8-8 4-5 9-7 16-16 6-4 4-4 8-6 9-5 4-4z" fill="#1C1C1C"/>
<path transform="translate(1324,670)" d="m0 0h2l-1 4-8 11-6 9-7 7-6 9-9 12-7 8-3 5h-5l6-8 5-7 4-2 10-15 7-9 4-4h2l1-6 3-3h2l2-5z" fill="#6F6F6F"/>
<path transform="translate(731,566)" d="m0 0 14 2h2l1 4 3 2-1 5-3 3-8-1-3 1-4-10z" fill="#F6F6F6"/>
<path transform="translate(1465,374)" d="m0 0 3 4 4 6 3 2h2l4 14 2 6 1 9-1 13-2-1-4-19-1-11-7-11-4-9z" fill="#393939"/>
<path transform="translate(878,601)" d="m0 0v3l-4 7-8 11-6 9-9 15-8 10-11 18-4 1 6-11 10-14 6-8 5-7 6-12 6-9 5-4z" fill="#121212"/>
<path transform="translate(656,830)" d="m0 0 4 1-13 5-9 2-25 2-3 12h-1v-13h-13v-1l5-1h10v-3l-3-2 5-1h23v1l-11 1h-11v4l26-2 9-2z" fill="#777"/>
<path transform="translate(831,681)" d="m0 0 2 1-5 7-3 5-7 8-6 9-4 7h-4l-5 3-4 2 2-4 7-6 6-8 3-5 4-4h2l2-4 5-4 3-6z" fill="#343434"/>
<path transform="translate(941,542)" d="m0 0h2l-1 3-9 6-25 25-8 10-5 6-1-2 4-7 8-11 12-12 14-11 7-6z" fill="#2E2E2E"/>
<path transform="translate(1393,450)" d="m0 0h2l-1 13-7 17-4 12-6 15-4 4 1-7 4-8 4-11 3-9 2-8 4-10z" fill="#2D2D2D"/>
<path transform="translate(1489,421)" d="m0 0h1v35l-2 6h-4v-17l2-9 2-14z" fill="#262626"/>
<path transform="translate(810,820)" d="m0 0 2 2-3 4-14 7-5 1-1 6-2 2-1-2-4 1-2-2 6-4-3-2-4-2v-1h12l5-2-4-4 12-1z" fill="#1D1D1D"/>
<path transform="translate(812,991)" d="m0 0 3 2 3 9v3h6v2l-6 1v2h-13v2l-7-2h-3v-2l8-3 11-1-2-6z" fill="#5A5A5A"/>
<path transform="translate(625,919)" d="m0 0 5 5 2 4 9 6 11 5 4 1-3 1v2l-7-1-8-7-7-4 1 10h-4l-7-11-2-5 5 4 2 5 2 1-2-12z" fill="#161616"/>
<path transform="translate(966,569)" d="m0 0 1 2 4 2h-3l-4 1-6 8-6 10-5 6-5 2-1 2h-3l2-5 21-24z" fill="#272727"/>
<path transform="translate(1348,179)" d="m0 0h2v4l5 2 3 1-1-4 6 3 6 2-1 2-13 1-17-4-3-3z" fill="#727272"/>
<path transform="translate(1355,621)" d="m0 0h2l-1 4-5 9-6 10-5 8-8 14-4 4h-2l1-5 7-8 8-16 6-8 5-10z" fill="#3A3A3A"/>
<path transform="translate(1483,488)" d="m0 0h1l-1 29-3 11-3 7-2-1 1-2 1-14 2-3 1-10h-2l1-8z" fill="#595959"/>
<path transform="translate(1358,222)" d="m0 0 7 6h15l17-1 2 2-6 2h-7l8 14-1 2-3-3-4-8-4-2h-2l-1-2h-10l-4 1-7-8z" fill="#3E3E3E"/>
<path transform="translate(953,637)" d="m0 0 10 5 18 1-2 6-5 4-6-2h-7v-1l6-2-11-6-3-3z" fill="#606060"/>
<path transform="translate(1445,418)" d="m0 0h1v8l-2 9-3 11-3 17-7 18-1-4 7-23 5-28z" fill="#FEFEFE"/>
<path transform="translate(982,438)" d="m0 0 1 3-11 12-7 10-11 16-8 10-4 6-4 4 2-5 7-11 6-7 9-14 4-5 5-7h2l2-4z" fill="#222"/>
<path transform="translate(1227,825)" d="m0 0h2l-2 4-3 1 4 6h-3l-1-3-3 1-4 4 1 5 1 3-4-1-3-4-4 3-1-7 3-5 2-2h3l-1 6 5-4h2v-2z" fill="#414141"/>
<path transform="translate(1423,586)" d="m0 0h1v5l-3 3-4 11-1 3-7 7-3 9-3 3h-2l1-5 9-17 5-7 3-8z" fill="#323232"/>
<path transform="translate(985,257)" d="m0 0h5l-5 5-5 3-11 3-3 5 6-1-3 3-10 4-1-3 4-2 1-2h-4v-2l10-5z" fill="#151515"/>
<path transform="translate(591,830)" d="m0 0h20l2 2h-20v7l6 3 7 2v1l-9 1-4 2-3-2 4-2-4-1-1 2-3-5 3-1 1-8z" fill="#5A5A5A"/>
<path transform="translate(1425,629)" d="m0 0 1 2-5 13-3 3-2 5-4 6h-2l-1-3 4-4v-6l-2-4v-4l8 4v-5l-2-4h4z" fill="#4F4F4F"/>
<path transform="translate(988,464)" d="m0 0 1 3-7 9-8 11-5 5-10 14-9 13-3 1 2-5 10-13 9-13 7-8 4-6 8-10z" fill="#505050"/>
<path transform="translate(996,623)" d="m0 0 5 1-2 5-6 7-3 2-3 7-3 4h-2l1-5 3-6 2-6 3-4zm1 1-1 2h2z" fill="#8A8A8A"/>
<path transform="translate(884,314)" d="m0 0 1 3 6-3v2l2 1-10 6-9 5-6 5h-3l1-3 5-5 1-3 11-7z" fill="#AEAEAE"/>
<path transform="translate(695,868)" d="m0 0 4 1v2l-5 2-3 5 1 2-4 5v5l-4-2-5 1-4 1 1-3 7-4 5-4-6-1 4-4z" fill="#212121"/>
<path transform="translate(543,810)" d="m0 0 5 5 7 6 8 4 4 3v2l-6-1-11-6-3 6-1-4v-6l-6-5 1-3z" fill="#5A5A5A"/>
<path transform="translate(920,938)" d="m0 0 3 1-4 4-5 2-13 7-5 6 7-1-2 2-12 4h-2l1-3 5-2-5 1-1-2 9-6 16-8z" fill="#E0E0E0"/>
<path transform="translate(736,976)" d="m0 0 2 1 2 9 5 9 7 13v3h-3l-3-5-4-4-6-17z" fill="#3D3D3D"/>
<path transform="translate(755,824)" d="m0 0 2 1 3 6 4 4v2l4 2h5l3-3 4 2v2h2v2l-5 2-1 4h-2l-1-4-11-3-7-14z" fill="#2A2A2A"/>
<path transform="translate(726,804)" d="m0 0 3 1-4 4h-2l-1 4-10 7-13 9-3-1 4-4 6-3 8-9z" fill="#161616"/>
<path transform="translate(1184,786)" d="m0 0v3l-26 26-14 11-5 4v-3l8-7 4-3h2l2-5 10-8 16-15z" fill="#2A2A2A"/>
<path transform="translate(955,286)" d="m0 0 2 1v3l-27 13-2-4 6-4 10-4 9-4z" fill="#303030"/>
<path transform="translate(954,272)" d="m0 0 4 1-3 3-2 5-5 1v-2l-4 1-7 4-4 7-1-3h-4l1-3 21-12z" fill="#414141"/>
<path transform="translate(1456,432)" d="m0 0h1l1 9v36h-2l-1-2v-35z" fill="#C0C0C0"/>
<path transform="translate(1301,763)" d="m0 0 2 2-6 5-6 7-1 5-5 1-7 6 2-4 3-4 1-9 3 3h3l1-4-1-1v-6l5 5 3-5z" fill="#242424"/>
<path transform="translate(1446,393)" d="m0 0h2l2 12 1 3v16h-2l-3-9-1-1v-13z" fill="#D3D3D3"/>
<path transform="translate(1060,713)" d="m0 0 4 1 2 4v7l-3 3-5-1-2-2v-5z" fill="#DBDBDB"/>
<path transform="translate(1419,332)" d="m0 0 7 4 5 3 6 4v3h-8l-6-6-8-4-1-3z" fill="#0B0B0B"/>
<path transform="translate(1239,294)" d="m0 0 2 1-4 3v3l6-2v2l-5 3h-2v5l-3-1-14 8-4-1 15-9 3-3v-2h-5l3-3z" fill="#3D3D3D"/>
<path transform="translate(1282,769)" d="m0 0 2 3-8 7-4 5-8 7 4 8-5-4-5 1-4 3-4-1 1-3h5l4-6 6-4h2l1-4 8-6z" fill="#5D5D5D"/>
<path transform="translate(1127,897)" d="m0 0 2 1-10 7-10 8-1 2-5 3-3 3-9 3-7 4 1-3 10-6 12-8h2l1-3 15-10z" fill="#313131"/>
<path transform="translate(990,615)" d="m0 0 12 2v-2h2v3h-3l-1 3-8 4-4 6-2 2h-3l2-7 7-4v-1l-3 2-3-1 4-4z" fill="#FBFBFB"/>
<path transform="translate(1299,592)" d="m0 0h2l-1 4-6 10-7 10-6 8-1 2-4 1 1-3 2-1 3-7 7-8 6-10z" fill="#BABABA"/>
<path transform="translate(1324,670)" d="m0 0h2l-1 4-8 11-6 9-7 7-1 2-3-1 6-8 4-4h2l1-6 3-3h2l2-5z" fill="#303030"/>
<path transform="translate(1358,197)" d="m0 0h8l-2 2-7 2-6 5-1 3h-7l-16 9h-2v-2l15-8h2v-2l6-2 5-4z" fill="#2D2D2D"/>
<path transform="translate(905,560)" d="m0 0 1 3-3 3-4 1-10 14-4 5-11 16-2 1 2-5 10-15 12-16 4-4 3 1z" fill="#6B6B6B"/>
<path transform="translate(1183,323)" d="m0 0 2 1-12 10-13 10-10 6-4 4-2-1 8-8 18-12 11-9z" fill="#101010"/>
<path transform="translate(1371,674)" d="m0 0h1v22h-2l-1-5v-7l-5 5-4 1 2-1 2-7z" fill="#454545"/>
<path transform="translate(982,950)" d="m0 0 4 1-3 3-5 2-9 2-16 8h-3v-2l17-8z" fill="#6C6C6C"/>
<path transform="translate(1277,626)" d="m0 0 2 1-10 15-6 8-7 10-1-4 7-10 6-8 7-11z" fill="#959595"/>
<path transform="translate(670,891)" d="m0 0 3 1-3 3-11 6 3 6-1 2-4-4v-2l-11 3 1-3 16-8z" fill="#3F3F3F"/>
<path transform="translate(749,777)" d="m0 0 2 2-15 12-4 4-6 4h-5l5-4 8-7z" fill="#191919"/>
<path transform="translate(1381,652)" d="m0 0 1 4 2 9 1 6-6-4-6 5 1-5 5-13z" fill="#4C4C4C"/>
<path transform="translate(1364,361)" d="m0 0 5 5 8 17 5 12 3 9-4-4-9-21-6-12-2-3z" fill="#1E1E1E"/>
<path transform="translate(558,817)" d="m0 0 13 6 13 4 2 3-6 1-1 2-4-2 2-1-1-2-14-5-4-4z" fill="#5D5D5D"/>
<path transform="translate(940,647)" d="m0 0 21 3h8l5 2-1 5-4 4v-4l1-3-3-1-20-1-7-4z" fill="#3A3A3A"/>
<path transform="translate(1357,334)" d="m0 0 4 2 4 3h6l2 2-6 3-5 1h-14l1-2 11-2v-3z" fill="#0E0E0E"/>
<path transform="translate(1329,190)" d="m0 0h10l9 2 2 3-1 1h-7l-4-2-14-1-1-2z" fill="#838383"/>
<path transform="translate(1072,804)" d="m0 0h5l4 5-4 7h-2v-2l-4-1v-8z" fill="#FEFEFE"/>
<path transform="translate(1229,693)" d="m0 0v3l-10 11-7 9-9 10-2-1 11-13 11-14z" fill="#646464"/>
<path transform="translate(1439,598)" d="m0 0 1 3v6l4 6-1 3-3-1-1-7h-2l-2 5-3 4-4-2-1-3 4 2 4-7 2-7z" fill="#353535"/>
<path transform="translate(722,990)" d="m0 0 3 3v5h4l1-3 2 1 2 5 1 4-12-1 2-1-3-7z" fill="#F2F2F2"/>
<path transform="translate(929,976)" d="m0 0h3v3l-8 3-11 2-2 7h-3l-3-4 6-4 8-4z" fill="#FEFEFE"/>
<path transform="translate(1067,934)" d="m0 0 2 1-5 4-8 4-8 3-9 4-3-1 28-14z" fill="#898989"/>
<path transform="translate(1446,561)" d="m0 0 5 3 3 4v8l-3-1-3 10-3 4h-2l3-10 4-8-3-7z" fill="#8E8E8E"/>
<path transform="translate(1385,480)" d="m0 0 1 4-9 23-4 4 1-7 4-8 4-11z" fill="#505050"/>
<path transform="translate(1247,809)" d="m0 0 2 3 3 6-5-2-4-2v8l3 5-1 2-6-8-3-2 4-5z" fill="#686868"/>
<path transform="translate(906,681)" d="m0 0 3 1 6 7 7 4 6 1 3-1v3h-13l-11-10z" fill="#7E7E7E"/>
<path transform="translate(940,967)" d="m0 0h5l-3 3-6 3-7 2-16 6v-3l8-4 11-3z" fill="#808080"/>
<path transform="translate(1137,829)" d="m0 0h2l-1 3-11 9-5 5-7 4 1-5 11-8 3-1 2-4z" fill="#8F8F8F"/>
<path transform="translate(750,790)" d="m0 0 1 3-2 3h-2l-2 6-5 6-7 2v-2h2l1-4 8-7 2-3h2z" fill="#0C0C0C"/>
<path transform="translate(789,730)" d="m0 0 1 3-24 24v-3l14-16z" fill="#1B1B1B"/>
<path transform="translate(1131,896)" d="m0 0h2l-2 4-4 4-8 4-10 7v-3l10-8z" fill="#121212"/>
<path transform="translate(852,719)" d="m0 0h3v6l-4 1-6 9h-5l4-6zm-14 16 2 1-2 1z" fill="#1C1C1C"/>
<path transform="translate(1202,839)" d="m0 0 3 1 3 11-5-2-4 3-1-2-1-6z" fill="#505050"/>
<path transform="translate(1453,492)" d="m0 0h2v9l-7 20h-2l1-7 4-12z" fill="#898989"/>
<path transform="translate(1502,344)" d="m0 0h2l3 10 5 7-1 4-7-7-3 2 1-3z" fill="#131313"/>
<path transform="translate(1129,909)" d="m0 0h7v2l-8 4-3 4-5-1v-2l-3-1 9-4 2 1z" fill="#B3B3B3"/>
<path transform="translate(939,1014)" d="m0 0 4 4 3-1 5 4v2l3 1-2 1 4 2h-6l-8-4-3-6z" fill="#FEFEFE"/>
<path transform="translate(703,937)" d="m0 0 1 2 1 6 6 8 10 7 6 5-2 1-12-8-9-9-3-5 1-6z" fill="#6C6C6C"/>
<path transform="translate(1400,406)" d="m0 0h1l-1 10-2 10-1 12-2 1v-17l3-12z" fill="#474747"/>
<path transform="translate(1313,731)" d="m0 0 7 7 4-1 4-4-1 4-2 4 1 12-4-5-4-9-5-5z" fill="#565656"/>
<path transform="translate(825,999)" d="m0 0h2l1 4 5 2-2 1 3 9-1 3-3-3-3-7-3-1-1-3z" fill="#2E2E2E"/>
<path transform="translate(1459,491)" d="m0 0h2v11l-4 9-1 2h-2l1-12z" fill="#383838"/>
<path transform="translate(1304,741)" d="m0 0 4 1 3 5v2l5-3 3-1-1 4-5 2-1 4-5-5-3-6z" fill="#4A4A4A"/>
<path transform="translate(953,536)" d="m0 0 3 1-10 12-4 6-4 2 1-5 9-10z" fill="#474747"/>
<path transform="translate(1467,534)" d="m0 0h1v22l-3-4-3-5v-5z" fill="#323232"/>
<path transform="translate(1134,457)" d="m0 0 1 4-6 4-5 6-8 6-2 4-3 1 2-5 11-11h2v-2z" fill="#BFBFBF"/>
<path transform="translate(1504,421)" d="m0 0h3l2 4v3h3v3h-3l-1-2 2 10 2 4-4-1-2-4-2-10h2l-2-4z" fill="#838383"/>
<path transform="translate(794,982)" d="m0 0h24v2l-3 1-13 1-8-2z" fill="#1A1A1A"/>
<path transform="translate(1048,894)" d="m0 0 4 1-5 4-10 5-14 8-3-1 8-5 18-10z" fill="#565656"/>
<path transform="translate(1356,543)" d="m0 0 1 3-9 16-9 14-1-2 5-10 6-9 4-8z" fill="#969696"/>
<path transform="translate(1440,340)" d="m0 0 4 2 11 8 2 4-1 3-9-7-7-8z" fill="#545454"/>
<path transform="translate(1402,235)" d="m0 0 5 1 3 2-1 3-5 3-7-1 1-3h2z" fill="#717171"/>
<path transform="translate(708,957)" d="m0 0h2v30h-2l-1-2v-18z" fill="#FEFEFE"/>
<path transform="translate(722,767)" d="m0 0v3l-9 10-7 8-13 13-2-1 17-17 9-11z" fill="#EBEBEB"/>
<path transform="translate(787,725)" d="m0 0 2 1-8 11-5 4-5 5-3 1 2-4 13-13z" fill="#151515"/>
<path transform="translate(1262,320)" d="m0 0m-2 1 2 1-5 5-8 6h-4l2-4 5-6 6-1z" fill="#131313"/>
<path transform="translate(950,979)" d="m0 0h4l-1 3-7 1-12 6-9 4h-2l1-3z" fill="#313131"/>
<path transform="translate(982,438)" d="m0 0 1 3-11 12-7 10-4 2 2-4 8-11h2l2-4z" fill="#1F1F1F"/>
<path transform="translate(1214,316)" d="m0 0 3 1-12 9-10 7-2-2 10-8 6-4z" fill="#0C0C0C"/>
<path transform="translate(831,659)" d="m0 0h2l-2 5-7 9-11 12v-3l10-13 3-2 3-6z" fill="#1B1B1B"/>
<path transform="translate(1318,277)" d="m0 0 9 2v2l-14 7h-3l2-4 6-3z" fill="#FEFEFE"/>
<path transform="translate(662,854)" d="m0 0 2 1-6 4h-2v2l8-1-1 3-7 3-1 2-4-2 3-8z" fill="#464646"/>
<path transform="translate(1e3 250)" d="m0 0h7l-1 3-6 5v-2l-11 1 2-3z" fill="#3E3E3E"/>
<path transform="translate(803 1e3)" d="m0 0h9v2l-3 3h-4v2l-7-2h-3v-2z" fill="#474747"/>
<path transform="translate(1274,737)" d="m0 0v3l-5 6-3 5-12 13v-3l4-5 3-5 5-4 6-8z" fill="#727272"/>
<path transform="translate(656,830)" d="m0 0 4 1-13 5-9 2-14 1 3-3 18-2z" fill="#9F9F9F"/>
<path transform="translate(833,805)" d="m0 0h4l-1 3-11 3h-4l-1 4-4-4-4-2 1-2 5 1h8z" fill="#2C2C2C"/>
<path transform="translate(1175,861)" d="m0 0h2l1 5-5 4h-2l1 3h-2v-2l-4 2 5-10z" fill="#959595"/>
<path transform="translate(871,603)" d="m0 0 1 3-6 8-7 10-3 1 2-5 7-10z" fill="#1D1D1D"/>
<path transform="translate(1022,933)" d="m0 0 1 3-16 8h-2l2-4 12-6z" fill="#2D2D2D"/>
<path transform="translate(1044,923)" d="m0 0m-2 1 2 1-3 3-12 6-6 1 1-3z" fill="#151515"/>
<path transform="translate(1115,846)" d="m0 0 2 1-2 4-10 7-6 5h-2l1-3 5-4v-3l7-3z" fill="#3A3A3A"/>
<path transform="translate(568,775)" d="m0 0 2 1v9l-2 3-1 6h-2l-1-6 3-12z" fill="#AEAEAE"/>
<path transform="translate(1092,421)" d="m0 0h2l-2 4-12 11-4 2-1-3 12-10z" fill="#292929"/>
<path transform="translate(920,938)" d="m0 0 3 1-4 4-5 2-13 7-4 1v-2l18-10z" fill="#313131"/>
<path transform="translate(996,623)" d="m0 0 5 1-1 3-6 3-3 5-4 2 1-5 3-4zm1 1-1 2h2z" fill="#F9F9F9"/>
<path transform="translate(956,551)" d="m0 0h2l-1 3-2-1-2 7-3 3h-4l1-7 6-4z" fill="#bbb"/>
<path transform="translate(1207,358)" d="m0 0 4 4 5 8-2 1-1 2-5-6-3-7z" fill="#575757"/>
<path transform="translate(689,931)" d="m0 0 2 1v2l-6 5-1 5-2 6h-3v-6l2-1-1-3-4-2 5-1h3z" fill="#3F3F3F"/>
<path transform="translate(1355,621)" d="m0 0h2l-1 4-5 9-4 7-3-1 8-16z" fill="#595959"/>
<path transform="translate(1484,516)" d="m0 0 3 2v2l6-3 1 4-1 4-7 1-1-5z" fill="#222"/>
<path transform="translate(900,303)" d="m0 0m-1 1m-1 1 2 4-15 9-1-2 3-5 8-3z" fill="#191919"/>
<path transform="translate(885,988)" d="m0 0h3l1 3-7 3-11 1v-2l9-4z" fill="#2F2F2F"/>
<path transform="translate(695,868)" d="m0 0 4 1v2l-5 2-4 5h-8l4-4z" fill="#2F2F2F"/>
<path transform="translate(1200,726)" d="m0 0h2l-2 4-5 6-5 5-5 2 2-4z" fill="#E4E4E4"/>
<path transform="translate(1e3 618)" d="m0 0h3l-1 5-3 2-5-1-4 4-5 6-3-1 5-4 3-5 9-5z" fill="#090909"/>
<path transform="translate(826,677)" d="m0 0 1 3-6 7-4 6-7 8-2-1 7-9 10-13z" fill="#1A1A1A"/>
<path transform="translate(1476,510)" d="m0 0h1v8l-8 14-1-4 5-10z" fill="#4F4F4F"/>
<path transform="translate(1446,393)" d="m0 0h2l1 13-2 8h-2v-13z" fill="#4A4A4A"/>
<path transform="translate(878,321)" d="m0 0 2 1-1 3-8 6-3 2h-3l1-3 5-5 1-3h2v2z" fill="#FEFEFE"/>
<path transform="translate(638,933)" d="m0 0 14 6 4 1-3 1v2l-7-1-8-7z" fill="#5D5D5D"/>
<path transform="translate(972,588)" d="m0 0 8 4 16 5v1h-11l-13-7z" fill="#232323"/>
<path transform="translate(1483,488)" d="m0 0h1l-1 15-3 3-2-1 1-8z" fill="#8A8A8A"/>
<path transform="translate(1135,320)" d="m0 0 3 1-10 7h-2l-1 3-10 5-2-1 9-6 6-5z" fill="#6F6F6F"/>
<path transform="translate(1186,196)" d="m0 0 3 1-12 6-9 3-3-1 16-8z" fill="#424242"/>
<path transform="translate(1247,802)" d="m0 0h2l-2 4-10 9-1 2h-3l2-4 5-6z" fill="#515151"/>
<path transform="translate(1383,650)" d="m0 0 5 1 3 2 3 1-2 2 1 5-1 2h-2l-5-10-2-1z" fill="#838383"/>
<path transform="translate(1410,609)" d="m0 0 2 1-2 4-4 10-3 3h-2l1-5 7-12z" fill="#242424"/>
<path transform="translate(861,995)" d="m0 0h8l-2 2-15 5h-2v-3z" fill="#494949"/>
<path transform="translate(1107,886)" d="m0 0 3 1-3 3-13 8-3 2-3-1 11-8z" fill="#242424"/>
<path transform="translate(658,842)" d="m0 0v3l-7 4-4 4-2-1 1-2-6 2v-3l7-2h2z" fill="#C1C1C1"/>
<path transform="translate(1227,825)" d="m0 0h2l-2 4-3 1 4 6h-3l-1-3-3 1-5 5-2-3 5-4h2v-2z" fill="#595959"/>
<path transform="translate(876,762)" d="m0 0 2 1-2 3h-23v-2l21-1z" fill="#3C3C3C"/>
<path transform="translate(878,601)" d="m0 0v3l-4 7-8 11-2-1 2-6 6-5z" fill="#676767"/>
<path transform="translate(1446,317)" d="m0 0 3 1 4 4 11 4 6 4-2 1-9-4-7-2-6-6z" fill="#707070"/>
<path transform="translate(892,579)" d="m0 0h2l-2 5-7 9-4 6h-2l2-5 6-9z" fill="#646464"/>
<path transform="translate(964,496)" d="m0 0v3l-12 17-4 4v-3l11-15z" fill="#2A2A2A"/>
<path transform="translate(1301,763)" d="m0 0 2 2-6 5-3 4-3-1-1-9 5 5 3-5z" fill="#838383"/>
<path transform="translate(1436,458)" d="m0 0h2l-1 8-6 15-1-4z" fill="#9C9C9C"/>
<path transform="translate(1193,852)" d="m0 0h2l-1 4-1 2 5-2-5 6-5 1 1-4-3-1 4-3h2z" fill="#6D6D6D"/>
<path transform="translate(863,620)" d="m0 0 2 1-2 5-9 15-2-2 4-7z" fill="#181818"/>
<path transform="translate(729,786)" d="m0 0h2l-2 4-10 7-7 4-2-1 11-8z" fill="#5F5F5F"/>
<path transform="translate(1023,532)" d="m0 0 6 1 12 4v2l-4 1-12-5z" fill="#414141"/>
<path transform="translate(692,970)" d="m0 0h2v2l4 2-1 5h-2l-1 4-3-7z" fill="#8B8B8B"/>
<path transform="translate(613,831)" d="m0 0h23v1l-11 1h-11l-1 3h-2v-2l-3-2z" fill="#D9D9D9"/>
<path transform="translate(992,554)" d="m0 0 6 2 8 7-3 1-6-3-5-5z" fill="#090909"/>
<path transform="translate(1024,541)" d="m0 0 17 5-3 2-9-1-5-4z" fill="#1D1D1D"/>
<path transform="translate(1008,527)" d="m0 0h2l4 6 8 6v2l-5-1-8-8z" fill="#232323"/>
<path transform="translate(1268,371)" d="m0 0 4 1-22 11-2-1 5-4z" fill="#424242"/>
<path transform="translate(941,279)" d="m0 0m-2 1h2l-1 3-4 3-3 6-1-3h-4l1-3z" fill="#717171"/>
<path transform="translate(1288,361)" d="m0 0 4 1-14 8-4-1 8-6z" fill="#1E1E1E"/>
<path transform="translate(577,808)" d="m0 0 9 1 7 4v1l-9-1-7-3z" fill="#8B8B8B"/>
<path transform="translate(1488,462)" d="m0 0h2l-2 12-2 7h-2l1-9 2-9z" fill="#757575"/>
<path transform="translate(1506,405)" d="m0 0 3 2 3 5v6l-2 3-3-1 1-2v-6l-2-2z" fill="#969696"/>
<path transform="translate(1237,330)" d="m0 0h2v2h6l-4 4-9 3v-3l4-3z" fill="#555"/>
<path transform="translate(1070,880)" d="m0 0m-1 1v3l-16 10-4-1 2-2 7-3 9-6z" fill="#1F1F1F"/>
<path transform="translate(706,802)" d="m0 0 2 1-5 4-16 8v2h-2l1-3 10-7z" fill="#141414"/>
<path transform="translate(964,270)" d="m0 0 3 1-1 2 6-1-3 3-10 4-1-3 4-2z" fill="#949494"/>
<path transform="translate(1320,786)" d="m0 0h1v5l-6 7-5 4-1 2h-2l-1 2-2-2 13-12z" fill="#FEFEFE"/>
<path transform="translate(1374,703)" d="m0 0 2 1v14l-2 3-1-1v-16z" fill="#141414"/>
<path transform="translate(852,640)" d="m0 0 1 2-5 8-6 8-2-1 2-4z" fill="#141414"/>
<path transform="translate(1372,512)" d="m0 0 1 4-6 11-4 2 3-7 4-7z" fill="#5E5E5E"/>
<path transform="translate(1357,334)" d="m0 0 4 2 4 3h6l2 2-6 3-4-2z" fill="#535353"/>
<path transform="translate(1447,585)" d="m0 0 3 4-4 2-5 7h-2l2-6 2-3h2z" fill="#090909"/>
<path transform="translate(846,429)" d="m0 0h4l-2 5-3 3-5-1z" fill="#ACACAC"/>
<path transform="translate(1154,376)" d="m0 0m-1 1v3l-13 12-4 1 6-7z" fill="#3D3D3D"/>
<path transform="translate(997,944)" d="m0 0h5l-5 5-8 1v-2z" fill="#141414"/>
<path transform="translate(1280,830)" d="m0 0 1 3-6 8-8 7v-3l7-7 4-6z" fill="#FEFEFE"/>
<path transform="translate(1237,536)" d="m0 0 4 1-1 9-1 3h-2z" fill="#DADADA"/>
<path transform="translate(1092,395)" d="m0 0 2 1-8 8-10 9v-3l7-8z" fill="#262626"/>
<path transform="translate(1456,331)" d="m0 0 4 2 1 5-3 1-5-4v-2z" fill="#929292"/>
<path transform="translate(1358,197)" d="m0 0h8l-2 2-7 2-7 5v-4z" fill="#444"/>
<path transform="translate(1140,887)" d="m0 0 2 1 4-1-2 4-3 1h-3l-7 5-2-1 6-6 4-1z" fill="#D9D9D9"/>
<path transform="translate(555,822)" d="m0 0 7 2 5 4v2l-6-1-5-3z" fill="#777"/>
<path transform="translate(1476,626)" d="m0 0 1 3-6 8-6 5 2-5 7-10z" fill="#212121"/>
<path transform="translate(1380,495)" d="m0 0 1 2-5 11-3 3 1-7 4-8z" fill="#8F8F8F"/>
<path transform="translate(1445,418)" d="m0 0h1v8l-1 7-3-1 1-10z" fill="#B4B4B4"/>
<path transform="translate(1462,342)" d="m0 0 3 1 2 7v6l-4-4-1-3z" fill="#3A3A3A"/>
<path transform="translate(730,995)" d="m0 0 2 1 2 5 1 4-5-1v-2h-2l1-6z" fill="#0F0F0F"/>
<path transform="translate(929,976)" d="m0 0h3v3l-8 3h-5l2-3z" fill="#7A7A7A"/>
<path transform="translate(920,951)" d="m0 0h6l-1 2-14 4-4-1z" fill="#9F9F9F"/>
<path transform="translate(1127,897)" d="m0 0 2 1-10 7-9 6v-3l15-10z" fill="#FEFEFE"/>
<path transform="translate(870,651)" d="m0 0 1 4-1 3h-2l-2 4-3-1 2-5z" fill="#7A7A7A"/>
<path transform="translate(1375,194)" d="m0 0 4 1v2l2 1-9 6-5 2 1-3 8-5z" fill="#414141"/>
<path transform="translate(741,973)" d="m0 0 6 2 10 5v2l-5-1-11-6z" fill="#292929"/>
<path transform="translate(1084,900)" d="m0 0 4 1-5 4-10 5 2-4z" fill="#363636"/>
<path transform="translate(1125,839)" d="m0 0 1 3-4 4-7 4 1-5z" fill="#7D7D7D"/>
<path transform="translate(1282,724)" d="m0 0 4 2-4 4-3 5h-5l6-8z" fill="#A3A3A3"/>
<path transform="translate(948,614)" d="m0 0 7 3 6 5-1 2-11-6z" fill="#494949"/>
<path transform="translate(1423,586)" d="m0 0h1v5l-3 3-2 4h-2l1-6z" fill="#1C1C1C"/>
<path transform="translate(1227,389)" d="m0 0 3 1 1 4-4 2-5-1-1-2h4z" fill="#292929"/>
<path transform="translate(1364,361)" d="m0 0 5 5 5 11h-3l-6-11z" fill="#494949"/>
<path transform="translate(982,950)" d="m0 0 4 1-3 3-5 2h-5l4-4z" fill="#303030"/>
<path transform="translate(1052,941)" d="m0 0v3l-10 5-6 1 3-3z" fill="#E3E3E3"/>
<path transform="translate(641,854)" d="m0 0h2v2l2 1h-2v2l-8 2-1-2 1-3z" fill="#A1A1A1"/>
<path transform="translate(967,647)" d="m0 0 5 1 3 2h3l-4 3-6-2h-7v-1l6-2z" fill="#FEFEFE"/>
<path transform="translate(941,625)" d="m0 0 3 1 4 6 4 5-6-2-5-7z" fill="#0F0F0F"/>
<path transform="translate(1449,574)" d="m0 0 3 1-3 6-2 5-2 3h-2l3-10z" fill="#5F5F5F"/>
<path transform="translate(905,560)" d="m0 0 1 3-3 3-4 1-5 7h-2l2-5 5-6 4 1z" fill="#B5B5B5"/>
<path transform="translate(1482,503)" d="m0 0h1v14l-3-1v-10z" fill="#090909"/>
<path transform="translate(1184,345)" d="m0 0 3 1-12 8-3-1 9-7z" fill="#161616"/>
<path transform="translate(1475,307)" d="m0 0 7 6 3 4v2l-4-2-4-4-3-5z" fill="#1C1C1C"/>
<path transform="translate(972,264)" d="m0 0 1 2-6 4h-3v2h-5v-2l10-5z" fill="#444"/>
<path transform="translate(1453,492)" d="m0 0h2v9l-2 5h-2l1-12z" fill="#535353"/>
<path transform="translate(1088,413)" d="m0 0 2 1-8 8-7 4v-3l6-4z" fill="#FEFEFE"/>
<path transform="translate(1130,406)" d="m0 0h2v2h3l-1 3-3-2 1 7h-2l-2-5-2-1z" fill="#838383"/>
<path transform="translate(1200,337)" d="m0 0 2 1-5 4-6 3-4-1 8-5z" fill="#535353"/>
<path transform="translate(1183,323)" d="m0 0 2 1-12 10-3 2-3-1 8-6z" fill="#464646"/>
<path transform="translate(644,981)" d="m0 0h2l3 8 1 6-5-5-1-7z" fill="#646464"/>
<path transform="translate(1016,912)" d="m0 0h2v2l-12 7-4 1v-2z" fill="#646464"/>
<path transform="translate(700,869)" d="m0 0h4l-1 5 2 4h-4l-1-4h-2l1-4z" fill="#101010"/>
<path transform="translate(548,817)" d="m0 0h3l5 6v2l-6-2-2 1z" fill="#090909"/>
<path transform="translate(570,785)" d="m0 0 7 2 5 5-1 2-10-6z" fill="#A3A3A3"/>
<path transform="translate(749,777)" d="m0 0 2 2-10 8h-2v-3z" fill="#5D5D5D"/>
<path transform="translate(810,687)" d="m0 0v3l-8 10-3 4-2-1 6-8z" fill="#101010"/>
<path transform="translate(1446,590)" d="m0 0h5l2 5 2 2-4 3-4-8z" fill="#646464"/>
<path transform="translate(1429,484)" d="m0 0 1 2-4 13-2 2-1-2 5-14z" fill="#B1B1B1"/>
<path transform="translate(1440,368)" d="m0 0 2 2 3 8v6l-2-1-3-8z" fill="#2C2C2C"/>
<path transform="translate(886,957)" d="m0 0 2 2-5 4-8 3v-3z" fill="#2D2D2D"/>
<path transform="translate(966,935)" d="m0 0 4 1-10 6-6 1 4-4z" fill="#5F5F5F"/>
<path transform="translate(1337,751)" d="m0 0h3l1 5-6 7-1-2-2-1 5-4 1-2-3-2z" fill="#999"/>
<path transform="translate(1331,660)" d="m0 0 1 2 2 1-6 7h-2l1-5z" fill="#6D6D6D"/>
<path transform="translate(800,592)" d="m0 0 2 1-1 5-5 3h-3v-2l5-4z" fill="#252525"/>
<path transform="translate(1486,447)" d="m0 0 2 2 1 12h-3v-5l-1-4z" fill="#FEFEFE"/>
<path transform="translate(1245,333)" d="m0 0h3l5 10v2l-4-2-4-7z" fill="#343434"/>
<path transform="translate(1358,222)" d="m0 0 7 6 5 1-1 3-4 1-7-8z" fill="#838383"/>
<path transform="translate(1048,982)" d="m0 0h5l-1 2-12 4-4-1z" fill="#1F1F1F"/>
<path transform="translate(773,929)" d="m0 0 9 1 16 3v1h-9l-16-4z" fill="#EFEFEF"/>
<path transform="translate(558,817)" d="m0 0 13 6 1 3-10-3-4-4z" fill="#878787"/>
<path transform="translate(966,662)" d="m0 0 2 1-1 5-2 1-2 4-2-2 3-6-4-1v-1z" fill="#A4A4A4"/>
<path transform="translate(1254,657)" d="m0 0h1v5l-5 8-3 1 1-4z" fill="#B3B3B3"/>
<path transform="translate(953,637)" d="m0 0 12 6v3l-6-2-6-5z" fill="#8E8E8E"/>
<path transform="translate(1402,640)" d="m0 0 2 1 2 5 2 7-2 1-5-11z" fill="#262626"/>
<path transform="translate(947,619)" d="m0 0 7 5 6 6-5-1-7-5z" fill="#7F7F7F"/>
<path transform="translate(1484,446)" d="m0 0h2v9l1 3v5l-3-1z" fill="#171717"/>
<path transform="translate(1109,426)" d="m0 0 5 2 2 5 5 2 1 2-5-1-8-8z" fill="#444"/>
<path transform="translate(1430,349)" d="m0 0h2l3 6 4 5v3h-2l-7-11z" fill="#353535"/>
<path transform="translate(1200,311)" d="m0 0 2 1-8 6-6 5-3-1 9-7z" fill="#171717"/>
<path transform="translate(1329,190)" d="m0 0h7l1 3h-13l-1-2z" fill="#262626"/>
<path transform="translate(1024,988)" d="m0 0 3 1v2l-11 4-4-1z" fill="#181818"/>
<path transform="translate(672,895)" d="m0 0h2l4 6 7 4-4 1-8-7z" fill="#181818"/>
<path transform="translate(1277,626)" d="m0 0 2 1-7 10-2 1 1-5 4-6z" fill="#3E3E3E"/>
<path transform="translate(997,522)" d="m0 0h2l-2 4-5 7h-3l2-4z" fill="#181818"/>
<path transform="translate(1033,903)" d="m0 0v3l-10 6-3-1 8-5z" fill="#878787"/>
<path transform="translate(547,702)" d="m0 0h2l-1 9-2 2-2-6z" fill="#101010"/>
<path transform="translate(906,681)" d="m0 0 3 1 5 6-1 3-6-5z" fill="#090909"/>
<path transform="translate(921,537)" d="m0 0 1 3-5 4-6 5-1 2h-2l2-4 5-5 4-2z" fill="#585858"/>
<path transform="translate(1509,377)" d="m0 0 4 5 2 2v5l-6-6z" fill="#676767"/>
<path transform="translate(1072,370)" d="m0 0 2 1-3 5-8 7h-3l8-8z" fill="#A7A7A7"/>
<path transform="translate(1305,355)" d="m0 0m-5 1h5v2l-8 3h-3v-2z" fill="#303030"/>
<path transform="translate(1237,279)" d="m0 0h2v2l-10 6-6 1 4-3z" fill="#979797"/>
<path transform="translate(1247,809)" d="m0 0 2 3 3 6-5-2-3-3v-2z" fill="#313131"/>
<path transform="translate(849,741)" d="m0 0 2 1-5 5-4 3-3-1z" fill="#191919"/>
<path transform="translate(1323,710)" d="m0 0 4 4 5 9-2 2-7-13z" fill="#4A4A4A"/>
<path transform="translate(1459,551)" d="m0 0h2l-1 5-4 9h-1l1-8z" fill="#626262"/>
<path transform="translate(1356,543)" d="m0 0 1 3-7 12-2-1 5-10z" fill="#C4C4C4"/>
<path transform="translate(1283,319)" d="m0 0 4 1 5 9 1 3-3-1z" fill="#111"/>
<path transform="translate(834,977)" d="m0 0h2v2l3-1v2l-7 2h-4l1-3z" fill="#878787"/>
<path transform="translate(873,964)" d="m0 0h2v2l-11 5-2-1v-2z" fill="#767676"/>
<path transform="translate(944,944)" d="m0 0h2v2l-10 4-4-1 8-4z" fill="#878787"/>
<path transform="translate(613,939)" d="m0 0 2 4 1 8-3 1-1-5v-7z" fill="#090909"/>
<path transform="translate(920,938)" d="m0 0 3 1-4 4-5 2h-3l5-5z" fill="#C2C2C2"/>
<path transform="translate(1129,909)" d="m0 0h7v2l-7 3h-2z" fill="#767676"/>
<path transform="translate(787,692)" d="m0 0h2l-1 5-5 5-3 1 2-5 4-3z" fill="#2A2A2A"/>
<path transform="translate(1324,670)" d="m0 0h2l-1 4-5 7-2-2z" fill="#5D5D5D"/>
<path transform="translate(918,653)" d="m0 0 3 1-4 7-3 4-1-4z" fill="#989898"/>
<path transform="translate(1260,649)" d="m0 0 3 1-7 10-1-4z" fill="#4C4C4C"/>
<path transform="translate(1422,505)" d="m0 0h1v6l-4 9h-1l1-7z" fill="#BABABA"/>
<path transform="translate(998,451)" d="m0 0 1 3-7 8-3 2 2-5z" fill="#090909"/>
<path transform="translate(1395,309)" d="m0 0m-4 1h4v2l-9 3-2-2z" fill="#333"/>
<path transform="translate(1329,228)" d="m0 0h5v2l-13 4-2-1z" fill="#989898"/>
<path transform="translate(1198,843)" d="m0 0 3 1 3 4-5 4-1-2-1-6z" fill="#4F4F4F"/>
<path transform="translate(1259,791)" d="m0 0 2 1v2l-7 5-4-1 1-3h5z" fill="#2C2C2C"/>
<path transform="translate(818,774)" d="m0 0 6 1 3 2v2h-5l-4-3z" fill="#232323"/>
<path transform="translate(742,743)" d="m0 0v3l-10 12v-3l7-9z" fill="#464646"/>
<path transform="translate(787,725)" d="m0 0 2 1-3 4h-2l2-4z" fill="#232323"/>
<path transform="translate(891,574)" d="m0 0h2l-2 4-6 8-1-3z" fill="#727272"/>
<path transform="translate(988,533)" d="m0 0 3 1-6 10-2-3z" fill="#575757"/>
<path transform="translate(1362,531)" d="m0 0h2l-2 6-4 6-1-3z" fill="#3D3D3D"/>
<path transform="translate(1122,370)" d="m0 0v3l-11 8-2-1z" fill="#111"/>
<path transform="translate(1430,317)" d="m0 0 5 1 5 4 5 3-2 1-12-7z" fill="#D2D2D2"/>
<path transform="translate(1193,846)" d="m0 0 3 1-9 9-1-3z" fill="#6C6C6C"/>
<path transform="translate(1282,769)" d="m0 0 2 3-8 7-4 3v-3l8-7z" fill="#090909"/>
<path transform="translate(976,577)" d="m0 0 4 2 9 5v2l-5-1-8-7z" fill="#121212"/>
<path transform="translate(1428,577)" d="m0 0h1v8l-3 1-2 4 1-6z" fill="#C7C7C7"/>
<path transform="translate(1037,511)" d="m0 0h2l5 8-1 2-5-4-2-5z" fill="#121212"/>
<path transform="translate(962,464)" d="m0 0v3l-7 10-2-1 6-10z" fill="#2D2D2D"/>
<path transform="translate(1081,456)" d="m0 0 4 2v2l4 2 4 1v2l-6-1-6-7z" fill="#090909"/>
<path transform="translate(1408,387)" d="m0 0 2 1 4 7 3 3v2l-4-2-5-8z" fill="#636363"/>
<path transform="translate(1176,384)" d="m0 0 3 1 4 6 3 4-1 2-8-9z" fill="#090909"/>
<path transform="translate(1502,344)" d="m0 0h2l2 5-1 5h-2z" fill="#5A5A5A"/>
<path transform="translate(1480,340)" d="m0 0 3 1 7 10-1 3-9-13z" fill="#363636"/>
<path transform="translate(1225,301)" d="m0 0 3 1-8 5-5 3-2-1 9-7z" fill="#363636"/>
<path transform="translate(1370,212)" d="m0 0h2v2l-10 3-5 1 3-3 4-2z" fill="#5A5A5A"/>
<path transform="translate(1359,207)" d="m0 0 4 1-8 4h-4l1-3z" fill="#515151"/>
<path transform="translate(736,976)" d="m0 0 2 1 2 11h-3l-1-3z" fill="#9F9F9F"/>
<path transform="translate(996,922)" d="m0 0h3v2l-7 4h-3v-2z" fill="#383838"/>
<path transform="translate(658,824)" d="m0 0h4v2l-13 4-2-1 8-4z" fill="#8C8C8C"/>
<path transform="translate(565,783)" d="m0 0h2l1 5-1 6h-2l-1-6z" fill="#090909"/>
<path transform="translate(811,775)" d="m0 0 8 6 4 4h-3l-8-7z" fill="#121212"/>
<path transform="translate(805,764)" d="m0 0 4 1-6 5-3 3-2-1z" fill="#090909"/>
<path transform="translate(1274,737)" d="m0 0v3l-5 6-3 5-1-3 7-9z" fill="#414141"/>
<path transform="translate(1289,718)" d="m0 0 1 3-4 4h-3l1-4z" fill="#252525"/>
<path transform="translate(805,702)" d="m0 0 1 2-8 11-3 2 2-4z" fill="#383838"/>
<path transform="translate(1041,538)" d="m0 0 9 2v2l-9-1-2-2z" fill="#121212"/>
<path transform="translate(988,464)" d="m0 0 1 3-6 7h-2l2-4z" fill="#090909"/>
<path transform="translate(1499,414)" d="m0 0 2 2-2 8-2-1-1-5 1-3z" fill="#7A7A7A"/>
<path transform="translate(1328,259)" d="m0 0 1 3-8 4-3-1 2-2z" fill="#121212"/>
<path transform="translate(1158,206)" d="m0 0 4 1-10 4-5 1v-2z" fill="#2E2E2E"/>
<path transform="translate(694,829)" d="m0 0 2 1-9 7-4 1 5-5z" fill="#4D4D4D"/>
<path transform="translate(795,810)" d="m0 0 10 5 2 3-7-2-5-4z" fill="#090909"/>
<path transform="translate(1361,696)" d="m0 0 2 4-1 10-2-3v-10z" fill="#4D4D4D"/>
<path transform="translate(999,546)" d="m0 0 5 2 7 4v2l-5-1-7-6z" fill="#121212"/>
<path transform="translate(1231,355)" d="m0 0 3 1 3 5-2 1-5-3z" fill="#3A3A3A"/>
<path transform="translate(1079,928)" d="m0 0 3 1-10 5-3-1z" fill="#313131"/>
<path transform="translate(990,428)" d="m0 0h2l-2 4-4 5-3 1 2-4z" fill="#5A5A5A"/>
<path transform="translate(990,359)" d="m0 0 2 1-5 4-4 5-2-1 6-7z" fill="#8D8D8D"/>
<path transform="translate(910,355)" d="m0 0h2l-2 4-5 5-2 1 2-4z" fill="#979797"/>
<path transform="translate(690,817)" d="m0 0 3 1-4 3-6 2 1-3z" fill="#686868"/>
<path transform="translate(1355,713)" d="m0 0 1 4-3 8h-2l1-6z" fill="#090909"/>
<path transform="translate(1271,266)" d="m0 0h2v2l-9 4-4-1z" fill="#E8E8E8"/>
<path transform="translate(1253,801)" d="m0 0 4 4-1 4-4-4z" fill="#838383"/>
<path transform="translate(762,729)" d="m0 0v3l-6 5-5 2v-2l9-6z" fill="#141414"/>
<path transform="translate(943,602)" d="m0 0h1l-1 7-2 3h-2l1-4z" fill="#2A2A2A"/>
<path transform="translate(1214,301)" d="m0 0 2 1-10 8-2-1z" fill="#090909"/>
<path transform="translate(984,928)" d="m0 0 1 2-8 4-4-1z" fill="#7D7D7D"/>
<path transform="translate(1297,755)" d="m0 0 10 3-1 3-6-2z" fill="#5A5A5A"/>
<path transform="translate(542,749)" d="m0 0 5 5 1 3-4-1-2-3z" fill="#666"/>
<path transform="translate(1104,384)" d="m0 0h2l-2 4-3 4-4 1 1-3 5-4z" fill="#373737"/>
<path transform="translate(1131,362)" d="m0 0 1 3-5 4h-2l2-4z" fill="#5A5A5A"/>
<path transform="translate(1165,830)" d="m0 0h3l-1 4-4 3 1-6z" fill="#838383"/>
<path transform="translate(779,706)" d="m0 0 1 3-4 5h-2l2-5z" fill="#6B6B6B"/>
<path transform="translate(1252,273)" d="m0 0h5l-4 3-4 2-3-1z" fill="#C0C0C0"/>
<path transform="translate(755,923)" d="m0 0 10 3 3 2-8-1-5-3z" fill="#CACACA"/>
<path transform="translate(1189,491)" d="m0 0h3l-1 3-5 2v-3z" fill="#565656"/>
<path transform="translate(1174,313)" d="m0 0 2 1-11 6-1-2z" fill="#FEFEFE"/>
<path transform="translate(1219,288)" d="m0 0 4 1-11 5-2-1z" fill="#2F2F2F"/>
<path transform="translate(1030,951)" d="m0 0 3 1-6 3-4-1z" fill="#FEFEFE"/>
<path transform="translate(676,818)" d="m0 0 3 1-7 4-4-1z" fill="#4D4D4D"/>
<path transform="translate(862,735)" d="m0 0 5 1 5 5-5-2-5-3z" fill="#242424"/>
<path transform="translate(1347,383)" d="m0 0 4 2 3 5v2h-2z" fill="#686868"/>
<path transform="translate(714,982)" d="m0 0 2 1-1 8-2-3z" fill="#FEFEFE"/>
<path transform="translate(1431,592)" d="m0 0 5 4 1 3-4-2-3-4z" fill="#252525"/>
<path transform="translate(1320,219)" d="m0 0h2v2l-7 6-2-1z" fill="#252525"/>
<path transform="translate(770,824)" d="m0 0 4 2 5 3-3 1-6-5z" fill="#181818"/>
<path transform="translate(1399,630)" d="m0 0h2v3l-4 3-2-1z" fill="#090909"/>
<path transform="translate(1212,586)" d="m0 0 2 1-2 4-4 1v-2z" fill="#555"/>
<path transform="translate(931,524)" d="m0 0 1 3-7 6 2-4z" fill="#181818"/>
<path transform="translate(1487,489)" d="m0 0 2 1 1 6h-3z" fill="#838383"/>
<path transform="translate(1059,384)" d="m0 0v3l-4 5h-2l2-4z" fill="#363636"/>
<path transform="translate(1155,324)" d="m0 0 2 1-8 7-1-2z" fill="#929292"/>
<path transform="translate(1410,323)" d="m0 0 5 3 3 4-4-2-4-3z" fill="#181818"/>
<path transform="translate(691,964)" d="m0 0 4 1 2 2-1 3z" fill="#9C9C9C"/>
<path transform="translate(648,922)" d="m0 0 4 1 2 4-4-1z" fill="#8B8B8B"/>
<path transform="translate(1335,735)" d="m0 0h2l1 7h-2z" fill="#292929"/>
<path transform="translate(915,548)" d="m0 0v3l-5 4v-3z" fill="#9C9C9C"/>
<path transform="translate(1342,378)" d="m0 0 3 2v3l-4-1z" fill="#3A3A3A"/>
<path transform="translate(1209,311)" d="m0 0 3 1-5 4-3-1z" fill="#090909"/>
<path transform="translate(986 1e3)" d="m0 0 4 1-2 2h-5z" fill="#3D3D3D"/>
<path transform="translate(752,834)" d="m0 0 6 4-4 1z" fill="#1A1A1A"/>
<path transform="translate(1251,766)" d="m0 0 1 2-5 6v-3z" fill="#3D3D3D"/>
<path transform="translate(750,731)" d="m0 0v3l-5 5 2-5z" fill="#4F4F4F"/>
<path transform="translate(1288,728)" d="m0 0v3l-3 3-2-1z" fill="#FEFEFE"/>
<path transform="translate(792,724)" d="m0 0 1 3-3 3-1-3z" fill="#4F4F4F"/>
<path transform="translate(1361,608)" d="m0 0 2 2-4 6-2-1z" fill="#B8B8B8"/>
<path transform="translate(898,570)" d="m0 0h2l-2 4-4 2z" fill="#ECECEC"/>
<path transform="translate(1475,558)" d="m0 0h2v6h-2l-1-4z" fill="#4F4F4F"/>
<path transform="translate(782,818)" d="m0 0 4 1 4 4-5-2z" fill="#090909"/>
<path transform="translate(1288,757)" d="m0 0 2 1v5h-2l-1-4z" fill="#8C8C8C"/>
<path transform="translate(940,510)" d="m0 0h2l-1 4-3 2z" fill="#9F9F9F"/>
<path transform="translate(1490,476)" d="m0 0h2l2 6-3-1z" fill="#545454"/>
<path transform="translate(1417,406)" d="m0 0 3 1 1 6-3-3z" fill="#B2B2B2"/>
<path transform="translate(1139,356)" d="m0 0h2l-2 4-4 1z" fill="#676767"/>
<path transform="translate(1311,235)" d="m0 0 1 2-6 3-3-1z" fill="#7A7A7A"/>
<path transform="translate(729,967)" d="m0 0 4 1 2 4-6-4z" fill="#1D1D1D"/>
<path transform="translate(1268,799)" d="m0 0 3 3 2 5-4-4z" fill="#313131"/>
<path transform="translate(937,531)" d="m0 0 1 3-5 4 2-4z" fill="#090909"/>
<path transform="translate(972,377)" d="m0 0 2 1-5 5-2-1z" fill="#838383"/>
<path transform="translate(1282,251)" d="m0 0 2 1-5 4-3-1z" fill="#E9E9E9"/>
<path transform="translate(1297,242)" d="m0 0 3 1-5 3-3-1z" fill="#ACACAC"/>
<path transform="translate(642,911)" d="m0 0 4 4-1 3-3-5z" fill="#A4A4A4"/>
<path transform="translate(762,751)" d="m0 0h2l-2 4-3 2 2-4z" fill="#787878"/>
<path transform="translate(1383,694)" d="m0 0h2l-2 4-3 2 2-4z" fill="#1F1F1F"/>
<path transform="translate(954,608)" d="m0 0 6 5h-3l-3-3z" fill="#787878"/>
<path transform="translate(796,590)" d="m0 0v3l-1 2-3-1z" fill="#FEFEFE"/>
<path transform="translate(905,555)" d="m0 0 2 1-6 5 2-4z" fill="#626262"/>
<path transform="translate(981,466)" d="m0 0h2v2l-4 3-2-1z" fill="#8E8E8E"/>
<path transform="translate(1336,203)" d="m0 0 5 2-4 1-2-2z" fill="#353535"/>
<path transform="translate(835,878)" d="m0 0 5 1v1h-6z" fill="#090909"/>
<path transform="translate(695,874)" d="m0 0 3 1-3 3-2-1z" fill="#212121"/>
<path transform="translate(842,759)" d="m0 0 5 2 1 2-4-1z" fill="#212121"/>
<path transform="translate(763,713)" d="m0 0 2 1-4 4 1-4z" fill="#B4B4B4"/>
<path transform="translate(585,647)" d="m0 0h1v5l-3-1z" fill="#3A3A3A"/>
<path transform="translate(587,638)" d="m0 0h2v5h-2z" fill="#3A3A3A"/>
<path transform="translate(1463,481)" d="m0 0h1v5l-2 1v-5z" fill="#E5E5E5"/>
<path transform="translate(911,447)" d="m0 0 2 1-4 4-2-1z" fill="#B4B4B4"/>
<path transform="translate(1186,375)" d="m0 0 3 3 1 4-3-3z" fill="#3A3A3A"/>
<path transform="translate(980,369)" d="m0 0v3l-4 3 2-4z" fill="#FEFEFE"/>
<path transform="translate(1196,319)" d="m0 0 2 1-4 3-2-1z" fill="#525252"/>
<path transform="translate(1191,303)" d="m0 0 2 1-5 3-2-1z" fill="#FEFEFE"/>
<path transform="translate(1222,295)" d="m0 0v3l-2 2-3-1z" fill="#3A3A3A"/>
<path transform="translate(1204,295)" d="m0 0 3 1-3 2-3-1z" fill="#9C9C9C"/>
<path transform="translate(755,989)" d="m0 0h2v5l-2-1z" fill="#919191"/>
<path transform="translate(644,929)" d="m0 0 4 2v3z" fill="#090909"/>
<path transform="translate(1147,896)" d="m0 0 4 2v2l-3-1z" fill="#242424"/>
<path transform="translate(527,858)" d="m0 0h2l-1 4-2-1z" fill="#090909"/>
<path transform="translate(669,827)" d="m0 0h2v2l-5 1v-2z" fill="#757575"/>
<path transform="translate(672,824)" d="m0 0h3v2l-4 1z" fill="#3F3F3F"/>
<path transform="translate(777,809)" d="m0 0h2l1 4-3-1z" fill="#090909"/>
<path transform="translate(792,718)" d="m0 0 1 3-3 2 1-4z" fill="#242424"/>
<path transform="translate(935,518)" d="m0 0v3l-3 3 2-5z" fill="#757575"/>
<path transform="translate(1024,511)" d="m0 0 3 1-1 3h-2z" fill="#3F3F3F"/>
<path transform="translate(1187,324)" d="m0 0 3 1-4 3-2-1z" fill="#3F3F3F"/>
<path transform="translate(1402,317)" d="m0 0 5 5-4-2z" fill="#757575"/>
<path transform="translate(882,1017)" d="m0 0 3 1-4 2z" fill="#272727"/>
<path transform="translate(996,963)" d="m0 0 4 1-7 1z" fill="#FEFEFE"/>
<path transform="translate(552,884)" d="m0 0h5l-1 3-4-2z" fill="#464646"/>
<path transform="translate(539,781)" d="m0 0 2 1-1 4z" fill="#A2A2A2"/>
<path transform="translate(728,760)" d="m0 0v3l-3 2 2-4z" fill="#838383"/>
<path transform="translate(1364,675)" d="m0 0 3 1v2h-3z" fill="#838383"/>
<path transform="translate(933,656)" d="m0 0 5 1 1 2-6-2z" fill="#838383"/>
<path transform="translate(919,553)" d="m0 0 1 2-3 3 1-4z" fill="#646464"/>
<path transform="translate(942,524)" d="m0 0v3l-3 2 2-4z" fill="#464646"/>
<path transform="translate(1266,326)" d="m0 0 2 2-1 4z" fill="#272727"/>
<path transform="translate(946,282)" d="m0 0h2l-1 3-3-1z" fill="#C0C0C0"/>
<path transform="translate(1256,267)" d="m0 0 2 1-5 2v-2z" fill="#C0C0C0"/>
<path transform="translate(1272,257)" d="m0 0 3 1-3 2-3-1z" fill="#DFDFDF"/>
<path transform="translate(938,974)" d="m0 0 2 1-3 1-1 2v-3z" fill="#FEFEFE"/>
<path transform="translate(1234,820)" d="m0 0h2l-1 3h-2z" fill="#FEFEFE"/>
<path transform="translate(670,814)" d="m0 0 2 1-5 2z" fill="#FEFEFE"/>
<path transform="translate(790,805)" d="m0 0 4 4-4-2z" fill="#2C2C2C"/>
<path transform="translate(983,571)" d="m0 0 3 3-2 2z" fill="#4F4F4F"/>
<path transform="translate(838,440)" d="m0 0 2 1v2h-3z" fill="#090909"/>
<path transform="translate(747,918)" d="m0 0 4 2h-3z" fill="#FEFEFE"/>
<path transform="translate(986,903)" d="m0 0 3 1-2 2z" fill="#090909"/>
<path transform="translate(551,814)" d="m0 0 4 2h-3z" fill="#D5D5D5"/>
<path transform="translate(1273,795)" d="m0 0v3l-2 1z" fill="#D5D5D5"/>
<path transform="translate(1245,775)" d="m0 0v3l-2 1z" fill="#838383"/>
<path transform="translate(767,723)" d="m0 0v3l-2 1z" fill="#313131"/>
<path transform="translate(756,722)" d="m0 0v3l-2 1z" fill="#D5D5D5"/>
<path transform="translate(795,706)" d="m0 0v3l-2 1z" fill="#090909"/>
<path transform="translate(1022,580)" d="m0 0 2 1v2l-3-1z" fill="#090909"/>
<path transform="translate(924,533)" d="m0 0v3l-2 1z" fill="#ACACAC"/>
<path transform="translate(1035,462)" d="m0 0 2 1-1 2h-2z" fill="#5A5A5A"/>
<path transform="translate(1497,461)" d="m0 0h2l-1 4z" fill="#FEFEFE"/>
<path transform="translate(1482,434)" d="m0 0h1v6h-1z" fill="#ACACAC"/>
<path transform="translate(1203,408)" d="m0 0 2 1-4 2z" fill="#5A5A5A"/>
<path transform="translate(1134,393)" d="m0 0 2 1-4 2z" fill="#090909"/>
<path transform="translate(1486,384)" d="m0 0 4 1-3 1z" fill="#313131"/>
<path transform="translate(1269,334)" d="m0 0 2 4h-2z" fill="#313131"/>
<path transform="translate(941,285)" d="m0 0 2 1-4 2v-2z" fill="#ACACAC"/>
<path transform="translate(700,973)" d="m0 0 3 1-3 1z" fill="#FEFEFE"/>
<path transform="translate(672,948)" d="m0 0h3v2l-3-1z" fill="#090909"/>
<path transform="translate(918,946)" d="m0 0 2 1-4 1z" fill="#FEFEFE"/>
<path transform="translate(748,830)" d="m0 0 3 1-1 2z" fill="#090909"/>
<path transform="translate(556,809)" d="m0 0 1 3-2 1z" fill="#FEFEFE"/>
<path transform="translate(568,802)" d="m0 0 2 1-1 3z" fill="#CDCDCD"/>
<path transform="translate(1314,695)" d="m0 0v3l-2-1z" fill="#FEFEFE"/>
<path transform="translate(1443,574)" d="m0 0 3 1-1 2z" fill="#6B6B6B"/>
<path transform="translate(925,547)" d="m0 0 2 1-3 2z" fill="#FEFEFE"/>
<path transform="translate(927,510)" d="m0 0 2 1-3 2z" fill="#FEFEFE"/>
<path transform="translate(1108,484)" d="m0 0v3l-2-1z" fill="#090909"/>
<path transform="translate(996,425)" d="m0 0h2v2l-3-1z" fill="#3A3A3A"/>
<path transform="translate(1048,396)" d="m0 0v3l-2-1z" fill="#090909"/>
<path transform="translate(1473,333)" d="m0 0 4 1-2 1z" fill="#3A3A3A"/>
<path transform="translate(1301,231)" d="m0 0 2 1-3 2z" fill="#CDCDCD"/>
<path transform="translate(1304,229)" d="m0 0 3 1-4 1z" fill="#6B6B6B"/>
<path transform="translate(1009,959)" d="m0 0 3 1-3 1z" fill="#FEFEFE"/>
<path transform="translate(685,945)" d="m0 0h2v2h-2z" fill="#090909"/>
<path transform="translate(672,831)" d="m0 0h3l-1 2z" fill="#FEFEFE"/>
<path transform="translate(545,809)" d="m0 0 3 1h-3z" fill="#464646"/>
<path transform="translate(549,760)" d="m0 0 2 1-1 2z" fill="#090909"/>
<path transform="translate(744,740)" d="m0 0v3z" fill="#464646"/>
<path transform="translate(1300,735)" d="m0 0h2l-1 3z" fill="#FEFEFE"/>
<path transform="translate(753,726)" d="m0 0v3z" fill="#464646"/>
<path transform="translate(769,720)" d="m0 0v3z" fill="#090909"/>
<path transform="translate(1298,715)" d="m0 0v3z" fill="#FEFEFE"/>
<path transform="translate(1300,712)" d="m0 0v3z" fill="#FEFEFE"/>
<path transform="translate(787,574)" d="m0 0h2v2h-2z" fill="#464646"/>
<path transform="translate(1439,571)" d="m0 0 3 1h-3z" fill="#C0C0C0"/>
<path transform="translate(937,499)" d="m0 0v3z" fill="#838383"/>
<path transform="translate(1072,463)" d="m0 0 3 1h-3z" fill="#090909"/>
<path transform="translate(1112,357)" d="m0 0 2 1h-3z" fill="#FEFEFE"/>
<path transform="translate(1177,311)" d="m0 0 2 1h-3z" fill="#FEFEFE"/>
<path transform="translate(1199,298)" d="m0 0 2 1h-3z" fill="#FEFEFE"/>
<path transform="translate(930,292)" d="m0 0h2v2h-2z" fill="#FEFEFE"/>
<path transform="translate(1294,235)" d="m0 0h2v2h-2z" fill="#464646"/>
<path transform="translate(974,967)" d="m0 0 3 1z" fill="#FEFEFE"/>
<path transform="translate(990,965)" d="m0 0 3 1z" fill="#FEFEFE"/>
<path transform="translate(1033,950)" d="m0 0 3 1z" fill="#FEFEFE"/>
<path transform="translate(705,935)" d="m0 0 1 2-2-1z" fill="#FEFEFE"/>
<path transform="translate(632,917)" d="m0 0" fill="#FEFEFE"/>
<path transform="translate(1102,850)" d="m0 0" fill="#FEFEFE"/>
<path transform="translate(660,841)" d="m0 0 2 1-2 1z" fill="#5A5A5A"/>
<path transform="translate(821,815)" d="m0 0 3 1z" fill="#ACACAC"/>
<path transform="translate(1298,781)" d="m0 0" fill="#090909"/>
<path transform="translate(1320,758)" d="m0 0 1 2-2-1z" fill="#5A5A5A"/>
<path transform="translate(749,739)" d="m0 0 2 1-2 1z" fill="#FEFEFE"/>
<path transform="translate(787,716)" d="m0 0 1 2-2-1z" fill="#090909"/>
<path transform="translate(772,716)" d="m0 0 2 1-2 1z" fill="#FEFEFE"/>
<path transform="translate(792,710)" d="m0 0 1 2-2-1z" fill="#ACACAC"/>
<path transform="translate(1315,693)" d="m0 0 2 1-2 1z" fill="#FEFEFE"/>
<path transform="translate(971,574)" d="m0 0h2l-1 2z" fill="#FEFEFE"/>
<path transform="translate(980,565)" d="m0 0h2l-1 2z" fill="#ACACAC"/>
<path transform="translate(974,476)" d="m0 0 2 1-2 1z" fill="#5A5A5A"/>
<path transform="translate(994,450)" d="m0 0 1 2-2-1z" fill="#FEFEFE"/>
<path transform="translate(1047,418)" d="m0 0 1 2-2-1z" fill="#FEFEFE"/>
<path transform="translate(1079,387)" d="m0 0 1 2-2-1z" fill="#FEFEFE"/>
<path transform="translate(1468,346)" d="m0 0h2l-1 2z" fill="#FEFEFE"/>
<path transform="translate(1497,340)" d="m0 0h2l-1 2z" fill="#FEFEFE"/>
<path transform="translate(1447,330)" d="m0 0h2l-1 2z" fill="#ACACAC"/>
<path transform="translate(962,968)" d="m0 0 2 1z" fill="#FEFEFE"/>
<path transform="translate(967,967)" d="m0 0 2 1z" fill="#FEFEFE"/>
<path transform="translate(1e3 962)" d="m0 0 2 1z" fill="#FEFEFE"/>
<path transform="translate(689,958)" d="m0 0" fill="#FEFEFE"/>
<path transform="translate(1098,945)" d="m0 0" fill="#090909"/>
<path transform="translate(688,942)" d="m0 0 2 1z" fill="#FEFEFE"/>
<path transform="translate(638,923)" d="m0 0 2 1z" fill="#FEFEFE"/>
<path transform="translate(549,882)" d="m0 0 2 1z" fill="#FEFEFE"/>
<path transform="translate(681,838)" d="m0 0 2 1z" fill="#838383"/>
<path transform="translate(553,837)" d="m0 0 2 1z" fill="#FEFEFE"/>
<path transform="translate(835,771)" d="m0 0 2 1z" fill="#090909"/>
<path transform="translate(1296,718)" d="m0 0" fill="#FEFEFE"/>
<path transform="translate(857,713)" d="m0 0" fill="#090909"/>
<path transform="translate(891,707)" d="m0 0" fill="#090909"/>
<path transform="translate(1454,565)" d="m0 0" fill="#090909"/>
<path transform="translate(1487,557)" d="m0 0" fill="#FEFEFE"/>
<path transform="translate(922,550)" d="m0 0 2 1z" fill="#FEFEFE"/>
<path transform="translate(1180,498)" d="m0 0 2 1z" fill="#FEFEFE"/>
<path transform="translate(1132,417)" d="m0 0" fill="#090909"/>
<path transform="translate(1401,404)" d="m0 0" fill="#FEFEFE"/>
<path transform="translate(1116,354)" d="m0 0 2 1z" fill="#FEFEFE"/>
<path transform="translate(1119,352)" d="m0 0 2 1z" fill="#FEFEFE"/>
<path transform="translate(1123,349)" d="m0 0 2 1z" fill="#FEFEFE"/>
<path transform="translate(1180,330)" d="m0 0 2 1z" fill="#090909"/>
<path transform="translate(1427,315)" d="m0 0 2 1z" fill="#FEFEFE"/>
<path transform="translate(1202,310)" d="m0 0 2 1z" fill="#090909"/>
<path transform="translate(1179,310)" d="m0 0 2 1z" fill="#FEFEFE"/>
<path transform="translate(1193,302)" d="m0 0 2 1z" fill="#FEFEFE"/>
<path transform="translate(1207,294)" d="m0 0 2 1z" fill="#090909"/>
<path transform="translate(1262,264)" d="m0 0 2 1z" fill="#FEFEFE"/>
<path transform="translate(1264,263)" d="m0 0 2 1z" fill="#FEFEFE"/>
<path transform="translate(1387,245)" d="m0 0 2 1z" fill="#FEFEFE"/>
<path transform="translate(1395,243)" d="m0 0 2 1z" fill="#FEFEFE"/>
<path transform="translate(1342,232)" d="m0 0 2 1z" fill="#FEFEFE"/>
<path transform="translate(856,1023)" d="m0 0" fill="#FEFEFE"/>
<path transform="translate(937,979)" d="m0 0" fill="#FEFEFE"/>
<path transform="translate(688,957)" d="m0 0" fill="#FEFEFE"/>
<path transform="translate(1022,955)" d="m0 0" fill="#FEFEFE"/>
<path transform="translate(915,948)" d="m0 0" fill="#FEFEFE"/>
<path transform="translate(1108,939)" d="m0 0" fill="#090909"/>
<path transform="translate(770,928)" d="m0 0" fill="#090909"/>
<path transform="translate(746,917)" d="m0 0" fill="#FEFEFE"/>
<path transform="translate(745,916)" d="m0 0" fill="#FEFEFE"/>
<path transform="translate(744,915)" d="m0 0" fill="#FEFEFE"/>
<path transform="translate(743,914)" d="m0 0" fill="#FEFEFE"/>
<path transform="translate(737,910)" d="m0 0" fill="#FEFEFE"/>
<path transform="translate(641,910)" d="m0 0" fill="#090909"/>
<path transform="translate(644,877)" d="m0 0" fill="#FEFEFE"/>
<path transform="translate(555,838)" d="m0 0" fill="#FEFEFE"/>
<path transform="translate(1162,837)" d="m0 0" fill="#FEFEFE"/>
<path transform="translate(655,837)" d="m0 0" fill="#FEFEFE"/>
<path transform="translate(751,833)" d="m0 0" fill="#090909"/>
<path transform="translate(747,829)" d="m0 0" fill="#090909"/>
<path transform="translate(769,823)" d="m0 0" fill="#FEFEFE"/>
<path transform="translate(768,822)" d="m0 0" fill="#FEFEFE"/>
<path transform="translate(767,820)" d="m0 0" fill="#FEFEFE"/>
<path transform="translate(766,819)" d="m0 0" fill="#FEFEFE"/>
<path transform="translate(550,813)" d="m0 0" fill="#FEFEFE"/>
<path transform="translate(675,811)" d="m0 0" fill="#FEFEFE"/>
<path transform="translate(676,810)" d="m0 0" fill="#FEFEFE"/>
<path transform="translate(794,809)" d="m0 0" fill="#090909"/>
<path transform="translate(1273,807)" d="m0 0" fill="#090909"/>
<path transform="translate(688,803)" d="m0 0" fill="#FEFEFE"/>
<path transform="translate(689,802)" d="m0 0" fill="#FEFEFE"/>
<path transform="translate(709,801)" d="m0 0" fill="#090909"/>
<path transform="translate(690,801)" d="m0 0" fill="#090909"/>
<path transform="translate(543,796)" d="m0 0" fill="#090909"/>
<path transform="translate(1274,794)" d="m0 0" fill="#090909"/>
<path transform="translate(1238,783)" d="m0 0" fill="#FEFEFE"/>
<path transform="translate(1239,782)" d="m0 0" fill="#FEFEFE"/>
<path transform="translate(1240,781)" d="m0 0" fill="#FEFEFE"/>
<path transform="translate(1241,780)" d="m0 0" fill="#FEFEFE"/>
<path transform="translate(1242,779)" d="m0 0" fill="#FEFEFE"/>
<path transform="translate(723,766)" d="m0 0" fill="#FEFEFE"/>
<path transform="translate(1252,765)" d="m0 0" fill="#FEFEFE"/>
<path transform="translate(724,765)" d="m0 0" fill="#FEFEFE"/>
<path transform="translate(729,759)" d="m0 0" fill="#090909"/>
<path transform="translate(1307,757)" d="m0 0" fill="#FEFEFE"/>
<path transform="translate(758,757)" d="m0 0" fill="#FEFEFE"/>
<path transform="translate(767,747)" d="m0 0" fill="#090909"/>
<path transform="translate(1319,744)" d="m0 0" fill="#FEFEFE"/>
<path transform="translate(763,728)" d="m0 0" fill="#090909"/>
<path transform="translate(1289,727)" d="m0 0" fill="#FEFEFE"/>
<path transform="translate(764,727)" d="m0 0" fill="#090909"/>
<path transform="translate(1290,726)" d="m0 0" fill="#FEFEFE"/>
<path transform="translate(1291,725)" d="m0 0" fill="#FEFEFE"/>
<path transform="translate(805,725)" d="m0 0" fill="#090909"/>
<path transform="translate(1293,722)" d="m0 0" fill="#FEFEFE"/>
<path transform="translate(1294,721)" d="m0 0" fill="#FEFEFE"/>
<path transform="translate(781,721)" d="m0 0" fill="#FEFEFE"/>
<path transform="translate(757,721)" d="m0 0" fill="#FEFEFE"/>
<path transform="translate(1295,720)" d="m0 0" fill="#FEFEFE"/>
<path transform="translate(782,720)" d="m0 0" fill="#090909"/>
<path transform="translate(758,720)" d="m0 0" fill="#FEFEFE"/>
<path transform="translate(770,719)" d="m0 0" fill="#090909"/>
<path transform="translate(759,719)" d="m0 0" fill="#FEFEFE"/>
<path transform="translate(771,718)" d="m0 0" fill="#FEFEFE"/>
<path transform="translate(760,718)" d="m0 0" fill="#FEFEFE"/>
<path transform="translate(856,715)" d="m0 0" fill="#090909"/>
<path transform="translate(790,712)" d="m0 0" fill="#090909"/>
<path transform="translate(1301,711)" d="m0 0" fill="#FEFEFE"/>
<path transform="translate(1302,709)" d="m0 0" fill="#FEFEFE"/>
<path transform="translate(768,706)" d="m0 0" fill="#FEFEFE"/>
<path transform="translate(806,701)" d="m0 0" fill="#FEFEFE"/>
<path transform="translate(811,686)" d="m0 0" fill="#090909"/>
<path transform="translate(1442,667)" d="m0 0" fill="#FEFEFE"/>
<path transform="translate(1443,666)" d="m0 0" fill="#FEFEFE"/>
<path transform="translate(939,646)" d="m0 0" fill="#090909"/>
<path transform="translate(963,617)" d="m0 0" fill="#FEFEFE"/>
<path transform="translate(970,607)" d="m0 0" fill="#FEFEFE"/>
<path transform="translate(960,605)" d="m0 0" fill="#090909"/>
<path transform="translate(959,604)" d="m0 0" fill="#FEFEFE"/>
<path transform="translate(958,603)" d="m0 0" fill="#FEFEFE"/>
<path transform="translate(1442,573)" d="m0 0" fill="#090909"/>
<path transform="translate(908,555)" d="m0 0" fill="#FEFEFE"/>
<path transform="translate(907,551)" d="m0 0" fill="#FEFEFE"/>
<path transform="translate(927,546)" d="m0 0" fill="#FEFEFE"/>
<path transform="translate(928,544)" d="m0 0" fill="#FEFEFE"/>
<path transform="translate(1472,532)" d="m0 0" fill="#FEFEFE"/>
<path transform="translate(938,530)" d="m0 0" fill="#FEFEFE"/>
<path transform="translate(943,523)" d="m0 0" fill="#FEFEFE"/>
<path transform="translate(944,522)" d="m0 0" fill="#FEFEFE"/>
<path transform="translate(945,521)" d="m0 0" fill="#FEFEFE"/>
<path transform="translate(946,520)" d="m0 0" fill="#FEFEFE"/>
<path transform="translate(937,516)" d="m0 0" fill="#FEFEFE"/>
<path transform="translate(923,515)" d="m0 0" fill="#FEFEFE"/>
<path transform="translate(924,514)" d="m0 0" fill="#FEFEFE"/>
<path transform="translate(925,513)" d="m0 0" fill="#FEFEFE"/>
<path transform="translate(929,509)" d="m0 0" fill="#FEFEFE"/>
<path transform="translate(1423,504)" d="m0 0" fill="#FEFEFE"/>
<path transform="translate(935,502)" d="m0 0" fill="#FEFEFE"/>
<path transform="translate(973,478)" d="m0 0" fill="#FEFEFE"/>
<path transform="translate(984,461)" d="m0 0" fill="#FEFEFE"/>
<path transform="translate(985,460)" d="m0 0" fill="#FEFEFE"/>
<path transform="translate(990,454)" d="m0 0" fill="#FEFEFE"/>
<path transform="translate(991,453)" d="m0 0" fill="#FEFEFE"/>
<path transform="translate(992,452)" d="m0 0" fill="#FEFEFE"/>
<path transform="translate(913,446)" d="m0 0" fill="#FEFEFE"/>
<path transform="translate(914,445)" d="m0 0" fill="#FEFEFE"/>
<path transform="translate(1122,437)" d="m0 0" fill="#FEFEFE"/>
<path transform="translate(1035,432)" d="m0 0" fill="#090909"/>
<path transform="translate(992,427)" d="m0 0" fill="#FEFEFE"/>
<path transform="translate(1045,420)" d="m0 0" fill="#FEFEFE"/>
<path transform="translate(1133,419)" d="m0 0" fill="#090909"/>
<path transform="translate(1048,417)" d="m0 0" fill="#FEFEFE"/>
<path transform="translate(1049,416)" d="m0 0" fill="#FEFEFE"/>
<path transform="translate(1050,415)" d="m0 0" fill="#FEFEFE"/>
<path transform="translate(1051,414)" d="m0 0" fill="#FEFEFE"/>
<path transform="translate(1421,413)" d="m0 0" fill="#FEFEFE"/>
<path transform="translate(1052,413)" d="m0 0" fill="#FEFEFE"/>
<path transform="translate(1199,412)" d="m0 0" fill="#FEFEFE"/>
<path transform="translate(1053,412)" d="m0 0" fill="#FEFEFE"/>
<path transform="translate(1054,411)" d="m0 0" fill="#FEFEFE"/>
<path transform="translate(1055,410)" d="m0 0" fill="#FEFEFE"/>
<path transform="translate(1056,409)" d="m0 0" fill="#FEFEFE"/>
<path transform="translate(1043,401)" d="m0 0" fill="#FEFEFE"/>
<path transform="translate(1045,399)" d="m0 0" fill="#FEFEFE"/>
<path transform="translate(1129,398)" d="m0 0" fill="#FEFEFE"/>
<path transform="translate(1130,397)" d="m0 0" fill="#090909"/>
<path transform="translate(1131,396)" d="m0 0" fill="#090909"/>
<path transform="translate(1049,395)" d="m0 0" fill="#090909"/>
<path transform="translate(1094,394)" d="m0 0" fill="#FEFEFE"/>
<path transform="translate(1052,392)" d="m0 0" fill="#090909"/>
<path transform="translate(1075,391)" d="m0 0" fill="#FEFEFE"/>
<path transform="translate(1076,390)" d="m0 0" fill="#FEFEFE"/>
<path transform="translate(1077,389)" d="m0 0" fill="#FEFEFE"/>
<path transform="translate(965,384)" d="m0 0" fill="#FEFEFE"/>
<path transform="translate(966,383)" d="m0 0" fill="#FEFEFE"/>
<path transform="translate(1190,382)" d="m0 0" fill="#090909"/>
<path transform="translate(1405,381)" d="m0 0" fill="#FEFEFE"/>
<path transform="translate(1109,360)" d="m0 0" fill="#FEFEFE"/>
<path transform="translate(1110,359)" d="m0 0" fill="#FEFEFE"/>
<path transform="translate(1114,356)" d="m0 0" fill="#FEFEFE"/>
<path transform="translate(1115,355)" d="m0 0" fill="#FEFEFE"/>
<path transform="translate(1118,353)" d="m0 0" fill="#FEFEFE"/>
<path transform="translate(1121,351)" d="m0 0" fill="#FEFEFE"/>
<path transform="translate(1122,350)" d="m0 0" fill="#FEFEFE"/>
<path transform="translate(1356,333)" d="m0 0" fill="#FEFEFE"/>
<path transform="translate(1268,333)" d="m0 0" fill="#FEFEFE"/>
<path transform="translate(1470,331)" d="m0 0" fill="#FEFEFE"/>
<path transform="translate(1179,331)" d="m0 0" fill="#090909"/>
<path transform="translate(1182,329)" d="m0 0" fill="#090909"/>
<path transform="translate(1183,328)" d="m0 0" fill="#090909"/>
<path transform="translate(1191,323)" d="m0 0" fill="#090909"/>
<path transform="translate(1429,316)" d="m0 0" fill="#FEFEFE"/>
<path transform="translate(1202,316)" d="m0 0" fill="#090909"/>
<path transform="translate(1426,314)" d="m0 0" fill="#FEFEFE"/>
<path transform="translate(1212,310)" d="m0 0" fill="#090909"/>
<path transform="translate(1216,300)" d="m0 0" fill="#090909"/>
<path transform="translate(1259,272)" d="m0 0" fill="#FEFEFE"/>
<path transform="translate(1252,270)" d="m0 0" fill="#FEFEFE"/>
<path transform="translate(1275,256)" d="m0 0" fill="#FEFEFE"/>
<path transform="translate(1386,246)" d="m0 0" fill="#FEFEFE"/>
<path transform="translate(1291,246)" d="m0 0" fill="#FEFEFE"/>
<path transform="translate(1302,240)" d="m0 0" fill="#090909"/>
</svg>
